<?xml version="1.0" encoding="utf-8"?>
<!-- Generator: Adobe Illustrator 23.0.1, SVG Export Plug-In . SVG Version: 6.00 Build 0)  -->
<svg version="1.1" id="Layer_1" xmlns="http://www.w3.org/2000/svg" xmlns:xlink="http://www.w3.org/1999/xlink" x="0px" y="0px"
	 viewBox="0 0 1920 1080" style="enable-background:new 0 0 1920 1080;" xml:space="preserve">
<style type="text/css">
	.st0{fill:#E3E9FF;}
	.st1{fill:#F7F9FF;}
	.st2{fill:#3F964F;}
	.st3{fill:#2C2858;}
	.st4{fill:#8EA5ED;}
	.st5{fill:#F5A3B7;}
	.st6{fill:#F291A9;}
	.st7{fill:#5F7FCF;}
	.st8{fill:#FFFFFF;}
	.st9{fill:#CDD8FA;}
	.st10{fill:#F37A50;}
	.st11{fill:#DE623C;}
	.st12{fill:#E62552;}
	.st13{fill:#B0173E;}
	.st14{fill:#F3C8B9;}
	.st15{fill:#F3AE9C;}
</style>
<g>
	<path class="st0" d="M386.1,1044.7c-39.1-19.2-132.7-46.2-116.4-162.2c5.2-37.2,53-93.8,87.8-107.8c134.4-54,102.3-99.5,44.2-197.5
		c-45.3-104.5-23.5-288.8,79.6-344.1c66.6-35.7,185.8,16.5,255.7-11.9c75.5-30.7,83-117.3,155.8-154
		c218.3-109.9,537.1-9.5,547.1,238.1c18.1,451.3,371.9,279.1,125.6,745.5L386.1,1044.7z"/>
	<g>
		<g>
			<path class="st1" d="M452.7,905.7l-2.1-1c-0.8-0.4-20.5-10.3-25.5-25.1c-2.4-7.2-3.2-14.5-2.3-20.5c1-6.5,4-11,8.4-12.4
				c8.7-2.9,19.6,7,24.8,22.5c5,14.8-2.1,33.6-2.4,34.4L452.7,905.7z M430.5,851.8c-1.7,1.6-3,4.3-3.5,7.9
				c-0.8,5.4-0.1,11.9,2.1,18.5c3.5,10.5,16.1,18.6,21.2,21.5c1.7-5.3,5.1-18.7,1.6-29.2l2-0.7l-2,0.7
				c-4.3-12.8-13.2-21.9-19.4-19.8C431.8,850.9,431.1,851.3,430.5,851.8z"/>
		</g>
		<g>
			<path class="st1" d="M464.8,930.9l-2.1,1.1c-0.8,0.4-20.5,10.3-35.4,5.5c-15.6-5.1-25.7-15.9-22.8-24.6c1.4-4.4,5.8-7.4,12.3-8.5
				c6-1,13.3-0.3,20.6,2.1l0,0c14.8,4.8,25.7,21.8,26.2,22.5L464.8,930.9z M410.3,911.7c-0.9,0.8-1.5,1.6-1.8,2.6
				c-2,6.2,7.2,15,20.1,19.1c10.5,3.4,24.5-1.8,29.9-4.2c-3.3-4.5-12-15.3-22.5-18.7c-6.6-2.1-13.1-2.8-18.5-1.9
				C414.4,909.2,411.9,910.2,410.3,911.7z"/>
		</g>
		<g>
			<path class="st1" d="M483.8,919.8c-9,8.1-20.8,12.1-21.4,12.4l-2.2,0.8l-0.5-2.3c-0.2-0.9-5.2-22.3,3.1-35.7
				c4-6.5,9.1-11.7,14.3-14.9c5.7-3.4,11-3.9,14.9-1.5c3.9,2.4,5.8,7.4,5.4,14c-0.4,6.1-2.9,13-6.9,19.5l0,0
				C488.7,914.9,486.3,917.5,483.8,919.8z M463.3,927.2c5.2-2.1,17.7-8,23.4-17.4l0,0c3.6-5.9,5.9-12.1,6.2-17.5
				c0.4-4.9-0.9-8.5-3.3-10c-2.5-1.5-6.3-1-10.5,1.5c-4.7,2.8-9.3,7.6-12.9,13.4C460.5,906.6,462.3,921.4,463.3,927.2z"/>
		</g>
		<g>
			<g>
				<path class="st1" d="M491.6,972.4l-5.1,3.2l-0.1-0.1c-0.2,0.1-0.3,0.2-0.5,0.2l-1.7,0.8l-1-1.6c-2.5-4-4.8-7.8-7-11.4
					c-26.6-44.5-31.3-65.2-31.5-66l-0.5-2.1l8.3-1.8l0.4,2.1c0.1,0.5,5,21,31.3,64.8c2,3.4,4.1,6.8,6.2,10.1L491.6,972.4z"/>
			</g>
		</g>
	</g>
	<path class="st2" d="M708.4,933.3c0-40.5-32.9-73.4-73.4-73.4c-32.2,0-59.6,20.7-69.4,49.6c-4.2-2.6-9.2-4-14.5-4
		c-15.4,0-27.8,12.5-27.8,27.8c0,2.4,0.3,4.7,0.9,6.8c-2.9-0.4-5.8-0.7-8.8-0.7c-32.5,0-58.9,26.4-58.9,58.9
		c0,32.5,25.5,55.9,58.1,55.9c13.7,0,138.2-5.4,138.2-5.4S708.4,964.8,708.4,933.3z"/>
	<path class="st2" d="M1591.8,1037.1c0,2.7-0.2,5.3-0.7,7.8h-383.4l24.2-123.7c-17.9-11.4-29.5-29.6-29.5-50
		c0-34.5,32.9-62.4,73.5-62.4c40.6,0,73.5,28,73.5,62.4c0,4.7-0.6,9.3-1.8,13.7c2.9-0.3,5.9-0.4,8.9-0.4c33.7,0,62.3,18.4,72.6,44.1
		c4.4-2.3,9.6-3.6,15.1-3.6c16.1,0,29.1,11.1,29.1,24.7c0,2.1-0.3,4.1-0.9,6.1c3-0.4,6.1-0.6,9.2-0.6c29.2,0,53.7,17.3,60,40.5
		c2.6-0.5,5.2-0.8,8-0.8C1572.9,994.8,1591.8,1013.8,1591.8,1037.1z"/>
	<g>
		<path class="st2" d="M1323.8,666.2c-12.6,13.6-37.3,16.9-37.3,16.9s-1.1-27.1,11.6-40.8s28.7-19.3,35.8-12.7
			C1340.9,636.2,1336.4,652.6,1323.8,666.2z"/>
		<path class="st2" d="M1271.4,670.3c3.4,18.3-8.7,40-8.7,40s-22.4-15.4-25.8-33.6c-3.4-18.3,1.6-34.5,11.1-36.3
			C1257.6,638.7,1268,652,1271.4,670.3z"/>
		<path class="st2" d="M1233.5,757.4c-1.2,3-2.2,5-2.5,5.5c0,0.1-0.1,0.1-0.1,0.1l0,0c0,0,0,0,0,0l-0.1,0c-0.2-0.2-1-0.7-2-1.5
			c-5.7-4.2-21.3-16.8-24.3-31.6c-3.7-18.2,1-34.5,10.5-36.5c9.5-1.9,20.2,11.2,23.9,29.4c1.7,8.1,0.2,17.1-1.8,24.4
			C1235.9,751.2,1234.6,754.7,1233.5,757.4z"/>
		<path class="st2" d="M1299.5,728.3c-18.6-1-36.8-18-36.8-18s20.2-18.1,38.8-17.1c18.6,1,33.2,9.7,32.6,19.4
			C1333.5,722.3,1318.1,729.3,1299.5,728.3z"/>
		<path class="st2" d="M1267.7,775.6c-18.6,0.9-38.5-14-38.5-14s18.2-20.1,36.8-21c18.6-0.9,34,6.2,34.5,15.9
			C1300.9,766.2,1286.3,774.7,1267.7,775.6z"/>
		<g>
			<path class="st2" d="M1293.2,678.5c-0.2,0.2-19.9,17.6-52.6,73c-2.4,4.1-4.9,8.3-7.4,12.8l-0.3-0.2l-2-1.1l0,0l0,0l-0.1,0
				c-0.2-0.2-1-0.7-2-1.5c2.8-5,5.6-9.8,8.3-14.3c32.6-55,51.9-71.9,52.8-72.7L1293.2,678.5z"/>
		</g>
	</g>
	<g>
		<path class="st2" d="M495.1,501.3c13.6,12.1,17.4,36.1,17.4,36.1s-26.5,1.7-40.1-10.4c-13.6-12.1-19.6-27.6-13.3-34.7
			C465.3,485.2,481.5,489.2,495.1,501.3z"/>
		<path class="st2" d="M500.3,552.4c17.8-3.7,39.3,7.6,39.3,7.6s-14.5,22.3-32.3,26c-17.8,3.7-33.8-0.8-35.7-10.1
			C469.7,566.7,482.5,556.1,500.3,552.4z"/>
		<path class="st2" d="M586.4,587.5c2.9,1.1,4.9,2.1,5.4,2.3c0.1,0,0.1,0,0.1,0.1l0,0c0,0,0,0,0,0l0,0.1c-0.2,0.2-0.6,1-1.4,2
			c-4,5.7-16,21.2-30.4,24.5c-17.7,4.1-33.8-0.1-35.9-9.4c-2.1-9.2,10.5-20,28.2-24.1c7.9-1.8,16.7-0.6,23.9,1.2
			C580.2,585.2,583.7,586.4,586.4,587.5z"/>
		<path class="st2" d="M556.4,523.6c-0.6,18.2-16.7,36.4-16.7,36.4s-18.2-19.4-17.6-37.5c0.6-18.2,8.8-32.6,18.2-32.3
			C549.8,490.4,557,505.4,556.4,523.6z"/>
		<path class="st2" d="M603.4,553.6c1.3,18.1-12.8,38-12.8,38s-20.1-17.4-21.4-35.5c-1.3-18.1,5.3-33.4,14.8-34.1
			C593.4,521.3,602.1,535.5,603.4,553.6z"/>
		<g>
			<path class="st2" d="M507.8,530.9c0.2,0.2,17.6,19.1,72.6,49.8c4,2.2,8.3,4.6,12.7,6.9l-0.1,0.3l-1.1,2l0,0l0,0l0,0.1
				c-0.2,0.2-0.6,1-1.4,2c-5-2.7-9.7-5.2-14.1-7.8c-54.6-30.6-71.5-49.1-72.3-49.9L507.8,530.9z"/>
		</g>
	</g>
	<g>
		<path class="st2" d="M512.8,725.7c13.5-7.4,33.7-3.6,33.7-3.6s-6.2,21.6-19.7,29c-13.5,7.4-27.5,7.7-31.4,0.7
			C491.6,744.8,499.3,733.1,512.8,725.7z"/>
		<path class="st2" d="M555,736c2.1-15.2,17.2-29.2,17.2-29.2s13.6,17.9,11.5,33.1c-2.1,15.2-10.2,26.7-18.2,25.6
			C557.7,764.5,552.9,751.3,555,736z"/>
		<path class="st2" d="M607.4,677.5c1.7-2,3.1-3.3,3.4-3.7c0,0,0.1-0.1,0.1-0.1l0,0c0,0,0,0,0,0l0,0.1c0.1,0.2,0.6,0.8,1.2,1.7
			c3.4,4.8,12.3,18.7,10.9,31.1c-1.8,15.3-9.7,26.9-17.7,25.9c-8-0.9-13-14.1-11.2-29.3c0.8-6.8,4.2-13.5,7.8-18.7
			C603.8,681.7,605.8,679.3,607.4,677.5z"/>
		<path class="st2" d="M548,683.2c14.3,5.6,24.2,23.7,24.2,23.7s-20.6,9-34.9,3.4c-14.3-5.6-23.5-16.3-20.6-23.7
			C519.7,679.1,533.7,677.6,548,683.2z"/>
		<path class="st2" d="M585.2,654.3c14.8,4.1,26.6,21,26.6,21s-19.5,11.1-34.4,7c-14.8-4.1-25.1-13.7-22.9-21.4
			C556.7,653.1,570.4,650.2,585.2,654.3z"/>
		<g>
			<path class="st2" d="M540,724c0.2-0.1,20.2-8.6,60.3-43.7c2.9-2.6,6-5.3,9.1-8.1l0.2,0.2l1.3,1.4l0,0l0,0l0,0.1
				c0.1,0.2,0.6,0.8,1.2,1.7c-3.5,3.2-6.9,6.2-10.2,9.1c-39.9,34.7-59.4,43-60.3,43.4L540,724z"/>
		</g>
	</g>
	<g>
		<g>
			<path class="st1" d="M1565.7,851.2l-0.4-2.2c-0.2-0.9-3.9-21.1,4.4-33.2c6.5-9.5,15.3-15.6,22.4-15.6c2.1,0,4,0.6,5.6,1.6
				c7,4.8,5.8,18.5-2.9,31.2c-8.2,12-26.3,17.3-27,17.5L1565.7,851.2z M1592.1,804.3c-5.6,0-13.5,5.7-19.1,13.9
				c-5.8,8.5-4.8,22.4-4.1,27.8c4.9-1.8,16.8-6.7,22.6-15.2c7.1-10.4,8.9-22.1,3.9-25.6C1594.6,804.6,1593.4,804.3,1592.1,804.3z"/>
		</g>
		<g>
			<path class="st1" d="M1553.7,874.4l-2-1c-0.8-0.4-19.2-9.5-24-23.3c-5-14.5-2.6-28,5.5-30.8c1-0.3,2-0.5,3-0.5
				c7.6,0,16,8.8,20.3,21.4c4.7,13.8-1.8,31.4-2.1,32.1L1553.7,874.4z M1536.3,822.8c-0.6,0-1.2,0.1-1.7,0.3c-5.7,2-7.1,13.7-3,25.7
				c3.4,9.8,15.1,17.2,19.9,19.9c1.5-5,4.7-17.5,1.3-27.2C1549.1,830.9,1542,822.8,1536.3,822.8z"/>
		</g>
		<g>
			<path class="st1" d="M1536.5,916.7l-2.8-0.5l-0.2-0.3c-0.3-0.2-0.8-0.4-1.4-0.7c-5.4-2.9-18.5-10.8-22.5-21.9
				c-2.4-6.7-3.4-13.4-2.6-19.1c0.8-6.1,3.5-10.3,7.5-11.8c1-0.4,2.1-0.6,3.2-0.6c7.6,0,16,8.6,20.5,21c1.9,5.3,2.4,11.8,1.4,19.3
				c-0.3,2.7-0.9,5.4-1.6,8.2c-0.6,2.3-1.1,4-1.3,4.5L1536.5,916.7z M1517.7,865.9c-0.6,0-1.2,0.1-1.8,0.3c-2.5,0.9-4.3,4-4.9,8.5
				c-0.7,5,0.2,11.1,2.4,17.2c3.6,9.8,15.9,17.2,20.3,19.6c0.2-0.6,0.4-1.3,0.6-2.1c0.7-2.6,1.2-5.2,1.5-7.7
				c0.9-6.9,0.5-12.8-1.2-17.4C1530.6,873.8,1523.4,865.9,1517.7,865.9z"/>
		</g>
		<g>
			<path class="st1" d="M1579.6,883c-13.7,0-27.6-9.3-28.1-9.7l-1.8-1.2l1.4-1.7c0.6-0.7,13.8-16.4,28.3-17.8
				c1.5-0.1,3.1-0.2,4.6-0.2c13.4,0,23.3,5.3,24,12.9c0.8,8.5-10.6,16.3-25.8,17.7C1581.4,883,1580.5,883,1579.6,883z M1555.7,871.2
				c4.2,2.5,14.3,7.8,23.9,7.8c0.8,0,1.5,0,2.2-0.1c12.6-1.2,22.8-7.2,22.2-13.3c-0.5-5.3-9.1-9.2-20-9.2c-1.4,0-2.8,0.1-4.2,0.2
				C1569.5,857.6,1559.5,867.2,1555.7,871.2z"/>
		</g>
		<g>
			<path class="st1" d="M1558,922.2c-12.6,0-25.1-6.6-25.6-6.9l-1.9-1l1.2-1.8c0.5-0.7,12-17.8,26.3-20.6c3.2-0.6,6.3-1,9.4-1
				c11.1,0,19.1,4.1,20.4,10.6c1.7,8.4-8.8,17.3-23.9,20.3C1562.2,922.1,1560.1,922.2,1558,922.2z M1536.4,912.8
				c3.9,1.8,12.9,5.4,21.6,5.4c1.8,0,3.6-0.2,5.2-0.5c12.4-2.5,21.9-9.6,20.7-15.5c-0.9-4.3-7.6-7.3-16.4-7.3
				c-2.8,0-5.7,0.3-8.6,0.9C1548.7,897.8,1539.7,908.4,1536.4,912.8z"/>
		</g>
		<g>
			<g>
				<path class="st1" d="M1537.8,917.7l-5.2-2l0-0.2c-0.1-0.1-0.3-0.2-0.5-0.2l-1.6-0.8l0.6-1.7c1.6-4.1,3.1-8,4.6-11.6
					c18.2-44.8,31-59.9,31.6-60.5l1.3-1.5l6,5.2l-1.3,1.5c-0.1,0.1-12.7,15.2-30.7,59.6c-1.4,3.4-2.7,6.9-4.1,10.3L1537.8,917.7z"/>
			</g>
		</g>
	</g>
	<g>
		<path class="st1" d="M1119,154.9c-13.8,0-25-11.2-25-25c0-13.8,11.2-25,25-25s25,11.2,25,25C1144,143.7,1132.7,154.9,1119,154.9z
			 M1119,110.1c-10.9,0-19.8,8.9-19.8,19.8s8.9,19.8,19.8,19.8s19.8-8.9,19.8-19.8S1129.9,110.1,1119,110.1z"/>
	</g>
	<path class="st3" d="M1612.7,1057H386.1c-3.4,0-6.1-2.8-6.1-6.1l0,0c0-3.4,2.8-6.1,6.1-6.1h1226.7c3.4,0,6.1,2.8,6.1,6.1l0,0
		C1618.9,1054.2,1616.1,1057,1612.7,1057z"/>
	<g>
		<path class="st1" d="M467.5,801.9c-13.8,0-25-11.2-25-25s11.2-25,25-25c13.8,0,25,11.2,25,25S481.2,801.9,467.5,801.9z
			 M467.5,757.1c-10.9,0-19.8,8.9-19.8,19.8s8.9,19.8,19.8,19.8c10.9,0,19.8-8.9,19.8-19.8S478.4,757.1,467.5,757.1z"/>
	</g>
	
		<ellipse transform="matrix(2.628873e-02 -0.9997 0.9997 2.628873e-02 -323.3208 1335.1095)" class="st1" cx="523.7" cy="833.5" rx="15" ry="15"/>
	<path class="st1" d="M1080.5,81.5c0,8.3-6.7,15-15,15c-8.3,0-15-6.7-15-15c0-8.3,6.7-15,15-15C1073.8,66.5,1080.5,73.2,1080.5,81.5
		z"/>
	<path class="st1" d="M1568.5,714.3c0,8.3-6.7,15-15,15c-8.3,0-15-6.7-15-15c0-8.3,6.7-15,15-15
		C1561.8,699.3,1568.5,706,1568.5,714.3z"/>
	<path class="st4" d="M1215.4,1044.9H605.6c-9.6,0-17.4-7.8-17.4-17.4V204.2c0-9.6,7.8-17.4,17.4-17.4h609.8
		c9.6,0,17.4,7.8,17.4,17.4v823.3C1232.8,1037.1,1225,1044.9,1215.4,1044.9z"/>
	<g>
		
			<rect x="552" y="263.3" transform="matrix(0.9322 -0.362 0.362 0.9322 -82.3641 255.6621)" class="st5" width="178.2" height="168.7"/>
		<polygon class="st6" points="634.3,259.6 634.3,440.4 644.7,437.2 644.7,255.6 		"/>
	</g>
	<g>
		<polygon class="st7" points="1198.4,1007.8 756.5,1007.8 653.4,933.8 653.4,209.9 1198.4,209.9 		"/>
		<polygon class="st8" points="1190.1,1001.3 748.2,1001.3 645.2,927.9 645.2,210 1190.1,210 		"/>
		<polygon class="st9" points="748.2,1001.6 645.2,927.9 713.6,914.1 		"/>
		<path class="st7" d="M645.2,927.9l111.3,79.8C756.5,1007.8,672.4,982.9,645.2,927.9z"/>
	</g>
	<g>
		<path class="st10" d="M1078,190.3V230c0,4.1-3.3,7.4-7.4,7.4H767.2c-4.1,0-7.4-3.3-7.4-7.4v-39.7c0-17,13.8-30.8,30.8-30.8h256.6
			c7.9,0,15.2,3,20.6,7.9C1074,173,1078,181.2,1078,190.3z"/>
		<path class="st10" d="M984.3,170.1H853.4c0-3.6,0.3-7.2,0.9-10.7c5.1-31.1,32.1-54.8,64.6-54.8c32.5,0,59.5,23.7,64.6,54.8
			C984,162.9,984.3,166.5,984.3,170.1z"/>
		<path class="st11" d="M1067.8,167.4l-308,55.1v-32.3c0-17,13.8-30.8,30.8-30.8h63.7c5.1-31.1,32.1-54.8,64.6-54.8
			c32.5,0,59.5,23.7,64.6,54.8h63.7C1055.1,159.4,1062.3,162.4,1067.8,167.4z"/>
		<path class="st0" d="M938.4,139.9c0,10.8-8.8,19.6-19.6,19.6c-10.8,0-19.6-8.8-19.6-19.6c0-10.8,8.8-19.6,19.6-19.6
			C929.7,120.4,938.4,129.1,938.4,139.9z"/>
	</g>
	<g>
		<g>
			<g>
				<path class="st4" d="M774.6,440.2h-92.3c-2.9,0-5.3-2.4-5.3-5.3v-92.3c0-2.9,2.4-5.3,5.3-5.3h92.3c2.9,0,5.3,2.4,5.3,5.3v92.3
					C779.9,437.9,777.5,440.2,774.6,440.2z M687.6,429.6h81.7v-81.7h-81.7V429.6z"/>
			</g>
			<g>
				<polygon class="st12" points="719.1,433.8 669.7,376.5 687.2,361.3 719.3,398.5 784.6,324.2 802,339.5 				"/>
			</g>
		</g>
		<g>
			<rect x="823" y="344.3" class="st9" width="212.8" height="19"/>
			<rect x="1050.3" y="344.3" class="st9" width="114.7" height="19"/>
			<rect x="823" y="382" class="st9" width="122.1" height="19"/>
			<rect x="823" y="419.7" class="st9" width="267.8" height="19"/>
			<rect x="958.8" y="382" class="st9" width="206.2" height="19"/>
		</g>
	</g>
	<g>
		<g>
			<g>
				<path class="st4" d="M774.6,650.6h-92.3c-2.9,0-5.3-2.4-5.3-5.3v-92.3c0-2.9,2.4-5.3,5.3-5.3h92.3c2.9,0,5.3,2.4,5.3,5.3v92.3
					C779.9,648.3,777.5,650.6,774.6,650.6z M687.6,640.1h81.7v-81.7h-81.7V640.1z"/>
			</g>
			<g>
				<polygon class="st12" points="719.1,644.2 669.7,586.9 687.2,571.8 719.3,608.9 784.6,534.6 802,549.9 				"/>
			</g>
		</g>
		<g>
			<rect x="823" y="552.1" class="st9" width="299.1" height="19"/>
			<rect x="823" y="589.8" class="st9" width="188.9" height="19"/>
			<rect x="823" y="627.5" class="st9" width="74.4" height="19"/>
			<rect x="909.4" y="627.5" class="st9" width="254" height="19"/>
			<rect x="1027.2" y="589.8" class="st9" width="136.2" height="19"/>
		</g>
	</g>
	<g>
		<g>
			<g>
				<path class="st4" d="M774.6,860.1h-92.3c-2.9,0-5.3-2.4-5.3-5.3v-92.3c0-2.9,2.4-5.3,5.3-5.3h92.3c2.9,0,5.3,2.4,5.3,5.3v92.3
					C779.9,857.8,777.5,860.1,774.6,860.1z M687.6,849.6h81.7v-81.7h-81.7V849.6z"/>
			</g>
			<g>
				<polygon class="st12" points="719.1,853.7 669.7,796.4 687.2,781.3 719.3,818.4 784.6,744.1 802,759.4 				"/>
			</g>
		</g>
		<g>
			<rect x="823" y="760.8" class="st9" width="91.8" height="19"/>
			<rect x="924.9" y="760.8" class="st9" width="237.7" height="19"/>
			<rect x="823" y="798.5" class="st9" width="248.1" height="19"/>
			<rect x="823" y="836.2" class="st9" width="157.8" height="19"/>
			<rect x="991.3" y="836.2" class="st9" width="122.4" height="19"/>
			<rect x="1085.3" y="798.5" class="st9" width="78.1" height="19"/>
		</g>
	</g>
	<g>
		
			<rect x="949" y="606.7" transform="matrix(0.2307 -0.973 0.973 0.2307 290.5269 1662.9802)" class="st13" width="495.8" height="82.2"/>
		<path class="st12" d="M1304.3,373.4l-10.1,42.7l-80-19l10.1-42.7c3.6-15.1,18.7-24.4,33.7-20.8l25.4,6
			C1298.6,343.2,1307.9,358.3,1304.3,373.4z"/>
		
			<rect x="1230.5" y="382.3" transform="matrix(0.2313 -0.9729 0.9729 0.2313 548.9584 1541.6567)" class="st14" width="39.2" height="82.3"/>
		<path class="st15" d="M1295.9,416.7l-0.4,1.7c-0.3,1.3-1.6,2.1-2.9,1.8l-79.4-18.9c-1.3-0.3-2.1-1.6-1.8-2.9l0.4-1.7
			c0.3-1.3,1.6-2.1,2.9-1.8l79.4,18.9C1295.4,414.1,1296.2,415.4,1295.9,416.7z"/>
		<path class="st15" d="M1291.8,435.1l-0.4,1.7c-0.3,1.3-1.6,2.1-2.9,1.8l-79.4-18.9c-1.3-0.3-2.1-1.6-1.8-2.9l0.4-1.7
			c0.3-1.3,1.6-2.1,2.9-1.8l79.4,18.9C1291.3,432.5,1292.1,433.8,1291.8,435.1z"/>
		<path class="st15" d="M1287.1,454.2l-0.4,1.7c-0.3,1.3-1.6,2.1-2.9,1.8l-79.4-18.9c-1.3-0.3-2.1-1.6-1.8-2.9l0.4-1.7
			c0.3-1.3,1.6-2.1,2.9-1.8l79.4,18.9C1286.6,451.6,1287.4,452.9,1287.1,454.2z"/>
		<path class="st14" d="M1142.3,878.2c-22.1-5.2-41.1-4.7-42.5,1.2c0,0,0,0.1,0,0.1l0,0l0,0c-0.1,0.6-0.1,1.2,0.2,1.9l6.4,69.9
			l4.6,49.8c0.2,1.7,2.4,2.2,3.3,0.8l26.7-42.1l37.9-59.8c0.5-0.5,0.8-1,1-1.6l0,0l0,0c0,0,0-0.1,0-0.1
			C1181.2,892.5,1164.4,883.4,1142.3,878.2z"/>
		<path class="st12" d="M1123.6,953.1c6.8,1.6,12.9,4.1,17.2,6.8l-26.7,42.1c-0.9,1.4-3.1,0.9-3.3-0.8l-4.6-49.8
			C1111.3,951,1117.3,951.6,1123.6,953.1z"/>
	</g>
</g>
</svg>
