<?xml version="1.0" encoding="utf-8"?>
<!-- Generator: Adobe Illustrator 23.0.1, SVG Export Plug-In . SVG Version: 6.00 Build 0)  -->
<svg version="1.1" id="Layer_1" xmlns="http://www.w3.org/2000/svg" xmlns:xlink="http://www.w3.org/1999/xlink" x="0px" y="0px"
	 viewBox="0 0 1920 1080" style="enable-background:new 0 0 1920 1080;" xml:space="preserve">
<style type="text/css">
	.st0{fill:url(#SVGID_1_);}
	.st1{fill:#F8CEEC;}
	.st2{fill:#A88BEB;}
</style>
<g>
	<path d="M806.7,700c1.2,1.3,2.3,2.5,3.5,3.8c-1.4-1.3-2.7-2.5-4.1-3.8c-6-5.8-11.8-12-17.1-18.5C795.1,687.6,801,693.8,806.7,700z"
		/>
</g>
<g>
	<path d="M1123.5,690.2c-1.8,2-3.7,4-5.6,5.9C1119.7,694.1,1121.6,692.1,1123.5,690.2z"/>
</g>
<linearGradient id="SVGID_1_" gradientUnits="userSpaceOnUse" x1="957.2094" y1="824.8212" x2="960.6801" y2="120.2791">
	<stop  offset="0" style="stop-color:#F8CEEC"/>
	<stop  offset="1" style="stop-color:#A88BEB"/>
</linearGradient>
<path class="st0" d="M1920,0v516.7c-66.3-14.7-136.6-22.7-209.5-22.7c-182.8,0-349.7,49.9-476.5,132.1c-8.5,5.5-16.8,11.1-24.9,16.9
	c-31.5,22.4-60.1,46.9-85.6,73.2c-1.9,2-3.8,3.9-5.6,5.9c-1.3,1.3-2.7,2.7-4,4c-39.9,38.4-94.2,62-153.9,62
	c-57.8,0-110.4-22.1-149.8-58.2c-1.1-1.3-2.3-2.5-3.5-3.8c-5.7-6.3-11.6-12.4-17.7-18.5c-23.1-23-48.8-44.6-76.6-64.5
	c-14.2-10.2-29-19.9-44.3-29.2C543.6,538.3,383.8,493,209.5,493c-72.9,0-143.2,7.9-209.5,22.7V0H1920z"/>
</svg>
