<?xml version="1.0" encoding="utf-8"?>
<!-- Generator: Adobe Illustrator 23.0.1, SVG Export Plug-In . SVG Version: 6.00 Build 0)  -->
<svg version="1.1" id="Layer_1" xmlns="http://www.w3.org/2000/svg" xmlns:xlink="http://www.w3.org/1999/xlink" x="0px" y="0px"
	 viewBox="0 0 720 720" style="enable-background:new 0 0 720 720;" xml:space="preserve">
<style type="text/css">
	.st0{opacity:0.2;fill:url(#SVGID_1_);}
	.st1{opacity:0.2;}
	.st2{opacity:0;}
	.st3{opacity:9.090909e-02;}
	.st4{opacity:0.1818;}
	.st5{opacity:0.2727;}
	.st6{opacity:0.3636;}
	.st7{opacity:0.4545;}
	.st8{opacity:0.5455;}
	.st9{opacity:0.6364;}
	.st10{opacity:0.7273;}
	.st11{opacity:0.8182;}
	.st12{opacity:0.9091;}
	.st13{fill:url(#SVGID_2_);}
	.st14{fill:url(#SVGID_3_);}
	.st15{opacity:0.8182;fill:url(#SVGID_4_);}
	.st16{opacity:0.6;fill:url(#SVGID_5_);}
	.st17{fill:url(#SVGID_6_);}
	.st18{fill:url(#SVGID_7_);}
	.st19{fill:#BCBEC0;}
	.st20{fill:url(#SVGID_8_);}
	.st21{opacity:0.6;fill:url(#SVGID_9_);}
	.st22{fill:url(#SVGID_10_);}
	.st23{fill:url(#SVGID_11_);}
	.st24{fill:url(#SVGID_12_);}
	.st25{opacity:0.9;}
	.st26{fill:url(#SVGID_13_);}
	.st27{fill:url(#SVGID_14_);}
	.st28{fill:url(#SVGID_15_);}
	.st29{fill:url(#SVGID_16_);}
	.st30{fill:url(#SVGID_17_);}
	.st31{fill:url(#SVGID_18_);}
	.st32{fill:url(#SVGID_19_);}
	.st33{fill:url(#SVGID_20_);}
	.st34{fill:url(#SVGID_21_);}
	.st35{fill:url(#SVGID_22_);}
	.st36{fill:url(#SVGID_23_);}
	.st37{fill:#FFFFFF;}
	.st38{fill:url(#SVGID_24_);}
	.st39{fill:url(#SVGID_25_);}
	.st40{fill:url(#SVGID_26_);}
	.st41{fill:url(#SVGID_27_);}
	.st42{fill:url(#SVGID_28_);}
	.st43{fill:url(#SVGID_29_);}
	.st44{fill:url(#SVGID_30_);}
	.st45{fill:url(#SVGID_31_);}
	.st46{fill:url(#SVGID_32_);}
	.st47{fill:url(#SVGID_33_);}
	.st48{fill:url(#SVGID_34_);}
	.st49{fill:url(#SVGID_35_);}
	.st50{fill:url(#SVGID_36_);}
	.st51{fill:url(#SVGID_37_);}
	.st52{fill:url(#SVGID_38_);}
	.st53{fill:url(#SVGID_39_);}
	.st54{fill:url(#SVGID_40_);}
	.st55{fill:#138BBD;}
	.st56{fill:#18A0CA;}
	.st57{fill:#1CB6D7;}
	.st58{fill:#21CBE5;}
	.st59{fill:#25E1F2;}
	.st60{fill:#2AF6FF;}
	.st61{fill:url(#SVGID_41_);}
	.st62{fill:url(#SVGID_42_);}
	.st63{fill:#9F19AB;}
	.st64{fill:#B228B2;}
	.st65{fill:#C537B9;}
	.st66{fill:#D945C0;}
	.st67{fill:#EC54C7;}
	.st68{fill:#FF63CE;}
	.st69{fill:url(#SVGID_43_);}
	.st70{fill:url(#SVGID_44_);}
	.st71{fill:#FFBA78;}
	.st72{fill:#FFC281;}
	.st73{fill:#FFCB8B;}
	.st74{fill:#FFD394;}
	.st75{fill:#FFDC9E;}
	.st76{fill:#FFE4A7;}
	.st77{fill:url(#SVGID_45_);}
	.st78{fill:url(#SVGID_46_);}
	.st79{fill:url(#SVGID_47_);}
	.st80{fill:#1F0D3D;}
	.st81{fill:url(#SVGID_48_);}
	.st82{fill:#25054D;}
	.st83{fill:url(#SVGID_49_);}
	.st84{fill:url(#SVGID_50_);}
	.st85{fill:url(#SVGID_51_);}
	.st86{fill:url(#SVGID_52_);}
	.st87{fill:url(#SVGID_53_);}
	.st88{fill:url(#SVGID_54_);}
	.st89{opacity:0.2;fill:url(#SVGID_55_);}
	.st90{opacity:0.2;fill:url(#SVGID_56_);}
	.st91{fill:#E6E7E8;}
	.st92{fill:url(#SVGID_57_);}
	.st93{fill:url(#SVGID_58_);}
	.st94{fill:url(#SVGID_59_);}
	.st95{fill:url(#SVGID_60_);}
	.st96{fill:url(#SVGID_61_);}
	.st97{fill:url(#SVGID_62_);}
	.st98{fill:url(#SVGID_63_);}
	.st99{fill:url(#SVGID_64_);}
	.st100{fill:url(#SVGID_65_);}
	.st101{fill:url(#SVGID_66_);}
	.st102{fill:url(#SVGID_67_);}
	.st103{fill:url(#SVGID_68_);}
	.st104{opacity:0.2;fill:url(#SVGID_69_);}
	.st105{opacity:0.3;fill:url(#SVGID_70_);}
	.st106{fill:url(#SVGID_71_);}
	.st107{fill:#939598;}
	.st108{fill:url(#SVGID_72_);}
	.st109{fill:#58595B;}
	.st110{fill:url(#SVGID_73_);}
	.st111{opacity:0.5;fill:url(#SVGID_74_);}
	.st112{opacity:0.2;fill:url(#SVGID_75_);}
	.st113{fill:url(#SVGID_76_);}
	.st114{fill:url(#SVGID_77_);}
	.st115{fill:url(#SVGID_78_);}
	.st116{fill:url(#SVGID_79_);}
	.st117{fill:url(#SVGID_80_);}
</style>
<g>
	<linearGradient id="SVGID_1_" gradientUnits="userSpaceOnUse" x1="310.3697" y1="574.8195" x2="596.5079" y2="574.8195">
		<stop  offset="5.555560e-02" style="stop-color:#200041"/>
		<stop  offset="0.2576" style="stop-color:#210243"/>
		<stop  offset="0.3572" style="stop-color:#25084B"/>
		<stop  offset="0.4341" style="stop-color:#2C1358"/>
		<stop  offset="0.4697" style="stop-color:#311B61"/>
		<stop  offset="0.482" style="stop-color:#351F65"/>
		<stop  offset="0.4954" style="stop-color:#422C73"/>
		<stop  offset="0.5093" style="stop-color:#584188"/>
		<stop  offset="0.5235" style="stop-color:#765FA7"/>
		<stop  offset="0.5303" style="stop-color:#8770B8"/>
		<stop  offset="0.5366" style="stop-color:#7E67AE"/>
		<stop  offset="0.5617" style="stop-color:#5C468D"/>
		<stop  offset="0.5857" style="stop-color:#442E75"/>
		<stop  offset="0.6078" style="stop-color:#362066"/>
		<stop  offset="0.6263" style="stop-color:#311B61"/>
		<stop  offset="0.6724" style="stop-color:#2A1155"/>
		<stop  offset="0.7491" style="stop-color:#230446"/>
		<stop  offset="0.8131" style="stop-color:#200041"/>
		<stop  offset="1" style="stop-color:#200041"/>
	</linearGradient>
	<path class="st0" d="M570.8,526.1c0,3.8-2.8,7.9-8.3,11.1l-79.2,75.6c-10,5.8-25.2,6.4-33.9,1.4l-144.1-83.7
		c-4.2-2.4-6.1-5.7-5.8-9.1c0,0.2,0,0.4,0,0.6c0,0.1,0,10.8,0,10.9c0.1,3.1,2,6.1,5.9,8.3l144.1,83.7c8.7,5,23.8,4.4,33.9-1.4
		l79.2-75.6c5.6-3.2,8.4-7.3,8.3-11.2C570.8,536,570.9,528.8,570.8,526.1z"/>
	<g class="st1">
		<path class="st2" d="M464.1,623.5c-7.9,0-15.1-1.7-20.7-5l-144.1-83.7c-7.6-4.4-11.9-11.3-11.9-19c0-8.4,5.2-16.3,14.3-21.5
			l126.5-48.6c7.2-4.1,16.1-6.4,25.2-6.4c7.9,0,15.1,1.7,20.7,5L571,501c7.6,4.4,11.9,11.3,11.9,19c0,8.4-5.2,16.3-14.3,21.5
			l-79.2,75.6C482.2,621.2,473.2,623.5,464.1,623.5z"/>
		<path class="st3" d="M302.3,495.3l126.5-48.6c7.1-4.1,16.1-6.3,25.1-6.2c3.9,0,7.5,0.6,10.9,1.4c3.2,0.8,7,2.4,9.6,3.9l93.4,54.7
			c0.1,0.1,2.8,1.6,2.9,1.7c7.4,4.4,10.8,11.4,10.4,18.8c-0.4,7.6-6.2,16.2-14.5,20.9l-77.8,74.2c-7,4-15.7,6.2-24.6,6.3
			c-7.7,0-14.7-1.7-20.3-4.9l-144.1-83.7c-7.3-4.2-11.4-10.8-11.4-18.1C288.5,507.8,293.5,500.3,302.3,495.3z"/>
		<path class="st4" d="M302.8,496.2l126.5-48.6c7.1-4.1,16.1-6.2,25-6.1c3.9,0.1,7.5,0.7,10.8,1.6c2.9,0.8,7.1,2.6,9.5,4l92.9,54.5
			c0.2,0.1,2.7,1.6,2.8,1.7c7.2,4.5,9.6,11.4,8.8,18.7c-0.8,6.8-7.1,16-14.6,20.3l-76.3,72.9c-6.8,3.9-15.4,6.1-24,6.1
			c-7.5,0-14.4-1.6-19.8-4.7l-144.1-83.7c-7-4-10.9-10.3-10.8-17.2C289.7,508.1,294.5,501.1,302.8,496.2z"/>
		<path class="st5" d="M303.4,497.2l126.5-48.6c7.1-4.1,16.1-6.2,24.9-5.9c3.8,0.1,7.4,0.8,10.7,1.7c2.6,0.7,7.3,2.9,9.4,4.1
			l92.4,54.2c0.3,0.2,2.6,1.6,2.8,1.7c7.1,4.6,8.5,11.3,7.3,18.6c-1,6-8.1,15.9-14.7,19.8l-74.9,71.5c-6.7,3.8-15,5.9-23.4,6
			c-7.3,0-14-1.5-19.3-4.6L301,532c-6.7-3.9-10.3-9.8-10.2-16.3C290.8,508.5,295.4,501.8,303.4,497.2z"/>
		<path class="st6" d="M303.9,498.1l126.5-48.6c7-4.1,16.1-6.1,24.7-5.7c3.8,0.2,7.4,1,10.6,1.9c2.2,0.6,7.4,3.1,9.3,4.2l91.9,53.9
			c0.4,0.2,2.5,1.5,2.8,1.7c6.9,4.6,9,11.8,5.8,18.5c0,5.4-9,15.8-14.8,19.2l-73.5,70.1c-6.5,3.7-14.6,5.8-22.8,5.8
			c-7.1,0-13.7-1.5-18.8-4.4L301.5,531c-6.4-3.7-9.8-9.3-9.7-15.5C292,508.9,296.3,502.5,303.9,498.1z"/>
		<path class="st7" d="M304.5,499.1l126.5-48.6c7-4,16.1-6,24.6-5.5c3.8,0.2,7.3,1.1,10.5,2.1c1.9,0.6,7.6,3.4,9.1,4.3l91.4,53.6
			c0.4,0.3,2.4,1.5,2.7,1.8c6.7,4.7,8.3,11.9,4.2,18.4c0,4.6-10,15.7-15,18.6l-72.1,68.8c-6.3,3.6-14.3,5.6-22.2,5.7
			c-6.9,0-13.3-1.4-18.3-4.3l-144.1-83.7c-6.1-3.5-9.3-8.8-9.1-14.6C293.1,509.2,297.2,503.3,304.5,499.1z"/>
		<path class="st8" d="M305,500l126.5-48.6c7-4,16.1-5.9,24.5-5.4c3.8,0.3,7.3,1.2,10.4,2.2c1.6,0.5,7.7,3.7,9,4.4l90.9,53.3
			c0.5,0.3,2.3,1.4,2.7,1.8c6.6,4.8,7.5,12,2.7,18.3c0,3.8-11,15.6-15.1,18L486,611.4c-6.1,3.5-13.9,5.5-21.6,5.5
			c-6.7,0-13-1.3-17.8-4.1l-144.1-83.7c-5.8-3.3-8.8-8.3-8.6-13.7C294.2,509.6,298.1,504,305,500z"/>
		<path class="st9" d="M305.6,501L432,452.3c6.9-4,16.1-5.8,24.4-5.2c3.8,0.3,7.2,1.4,10.3,2.4c1.3,0.4,7.9,3.9,8.9,4.5l90.4,53
			c0.6,0.4,2.2,1.4,2.7,1.8c6.4,4.8,6.8,12.1,1.1,18.2c0,3.1-11.9,15.5-15.2,17.4l-69.2,66c-6,3.5-13.5,5.3-21,5.4
			c-6.5,0.1-12.6-1.3-17.3-4l-144.1-83.7c-5.5-3.2-8.3-7.8-8-12.9C295.4,510,299.1,504.8,305.6,501z"/>
		<path class="st10" d="M306.1,501.9l126.5-48.6c6.9-4,16-5.7,24.3-5c3.8,0.3,7.1,1.5,10.2,2.6c0.9,0.3,8,4.2,8.8,4.6l89.9,52.7
			c0.7,0.4,2.1,1.3,2.7,1.8c6.2,4.9,6.1,12.2-0.4,18.1c0,2.3-12.9,15.4-15.4,16.8l-67.8,64.7c-5.8,3.4-13.2,5.2-20.3,5.2
			c-6.3,0.1-12.3-1.2-16.8-3.8l-144.1-83.7c-5.2-3-7.8-7.3-7.5-12C296.5,510.3,300,505.5,306.1,501.9z"/>
		<path class="st11" d="M306.7,502.9l126.5-48.6c6.9-4,16-5.7,24.2-4.8c3.7,0.4,7.1,1.6,10.1,2.8c0.6,0.2,8.2,4.4,8.7,4.7l89.4,52.4
			c0.8,0.5,2,1.3,2.6,1.8c6.1,5,5.3,12.3-1.9,17.9c0,1.5-13.8,15.2-15.5,16.2l-66.3,63.3c-5.6,3.3-12.8,5-19.7,5.1
			c-6.1,0.1-11.9-1.2-16.3-3.7l-144.1-83.7c-4.9-2.8-7.2-6.9-6.9-11.1C297.7,510.7,300.9,506.2,306.7,502.9z"/>
		<path class="st12" d="M307.2,503.8l126.5-48.6c6.9-4,16-5.6,24.1-4.7c3.7,0.4,7,1.8,10,2.9c0.3,0.1,8.3,4.7,8.6,4.8l88.9,52.1
			c0.9,0.5,1.9,1.2,2.6,1.8c5.9,5,4.6,12.5-3.5,17.8c0,0.8-14.8,15.1-15.6,15.6l-64.9,61.9c-5.5,3.2-12.4,4.8-19.1,4.9
			c-5.9,0.1-11.6-1.1-15.8-3.5l-144.1-83.7c-4.6-2.7-6.7-6.4-6.4-10.2C298.8,511,301.8,507,307.2,503.8z"/>
		<path d="M449.4,608l-144.1-83.7c-8.7-5-7.6-13.8,2.4-19.5l126.5-48.6c10-5.8,25.2-6.4,33.9-1.4l96.8,56.7c8.7,5,7.6,13.8-2.4,19.5
			l-79.2,75.6C473.3,612.4,458.1,613,449.4,608z"/>
	</g>
	<linearGradient id="SVGID_2_" gradientUnits="userSpaceOnUse" x1="310.3695" y1="531.1837" x2="596.5088" y2="531.1837">
		<stop  offset="5.555560e-02" style="stop-color:#200041"/>
		<stop  offset="0.2576" style="stop-color:#210243"/>
		<stop  offset="0.3572" style="stop-color:#25084B"/>
		<stop  offset="0.4341" style="stop-color:#2C1358"/>
		<stop  offset="0.4697" style="stop-color:#311B61"/>
		<stop  offset="0.482" style="stop-color:#351F65"/>
		<stop  offset="0.4954" style="stop-color:#422C73"/>
		<stop  offset="0.5093" style="stop-color:#584188"/>
		<stop  offset="0.5235" style="stop-color:#765FA7"/>
		<stop  offset="0.5303" style="stop-color:#8770B8"/>
		<stop  offset="0.5366" style="stop-color:#7E67AE"/>
		<stop  offset="0.5617" style="stop-color:#5C468D"/>
		<stop  offset="0.5857" style="stop-color:#442E75"/>
		<stop  offset="0.6078" style="stop-color:#362066"/>
		<stop  offset="0.6263" style="stop-color:#311B61"/>
		<stop  offset="0.6724" style="stop-color:#2A1155"/>
		<stop  offset="0.7491" style="stop-color:#230446"/>
		<stop  offset="0.8131" style="stop-color:#200041"/>
		<stop  offset="1" style="stop-color:#200041"/>
	</linearGradient>
	<path class="st13" d="M449.4,607.8l-144.1-83.7c-3.9-2.2-5.8-5.2-5.9-8.3c0-0.1,0-10.8,0-10.9c0.1-3.8,2.9,2.8,8.3-0.3L434.2,456
		c10-5.8,25.2-6.4,33.9-1.4l96.8,56.7c2.9,1.7,5-5.4,5.7-3.2c0.3,0.8,0.1,10.7,0.1,11.5c0.1,3.9-2.7,8-8.3,11.2l-79.2,75.6
		C473.3,612.2,458.1,612.8,449.4,607.8z"/>
	<linearGradient id="SVGID_3_" gradientUnits="userSpaceOnUse" x1="386.9379" y1="549.5826" x2="516.6458" y2="477.8293">
		<stop  offset="0" style="stop-color:#311B61"/>
		<stop  offset="0.2031" style="stop-color:#290F52"/>
		<stop  offset="0.4949" style="stop-color:#200041"/>
		<stop  offset="1" style="stop-color:#0F001F"/>
	</linearGradient>
	<path class="st14" d="M449.4,597.1l-144.1-83.7c-8.7-5-7.6-13.8,2.4-19.5l126.5-48.6c10-5.8,25.2-6.4,33.9-1.4l96.8,56.7
		c8.7,5,7.6,13.8-2.4,19.5l-79.2,75.6C473.3,601.5,458.1,602.1,449.4,597.1z"/>
	<linearGradient id="SVGID_4_" gradientUnits="userSpaceOnUse" x1="455.7271" y1="515.6628" x2="481.1902" y2="472.9703">
		<stop  offset="0" style="stop-color:#FFFFFF"/>
		<stop  offset="1" style="stop-color:#000000"/>
	</linearGradient>
	<path class="st15" d="M564.9,500.6l-96.8-56.7c-8.7-5-23.8-4.4-33.9,1.4l-63.7,24.5c0.6,0.5,1.2,0.9,2,1.4l144.1,83.7
		c2,1.2,4.3,2,6.9,2.6l39-37.2C572.5,514.4,573.6,505.6,564.9,500.6z"/>
	<radialGradient id="SVGID_5_" cx="456.5744" cy="573.6784" r="101.8015" gradientUnits="userSpaceOnUse">
		<stop  offset="0" style="stop-color:#AF8AFC"/>
		<stop  offset="1" style="stop-color:#10054D"/>
	</radialGradient>
	<path class="st16" d="M562.5,518.3l-79.2,75.6c-10,5.8-25.2,6.4-33.9,1.4l-144.1-83.7c-3.6-2.1-5.5-4.8-5.8-7.7
		c-0.5,3.5,1.4,7,5.8,9.5l144.1,83.7c8.7,5,23.8,4.4,33.9-1.4l79.2-75.6c5.9-3.4,8.6-7.8,8.2-11.9
		C570.3,511.8,567.5,515.4,562.5,518.3z"/>
	<linearGradient id="SVGID_6_" gradientUnits="userSpaceOnUse" x1="665.7106" y1="599.9769" x2="227.8305" y2="-5.9411">
		<stop  offset="0" style="stop-color:#311B61"/>
		<stop  offset="0.2031" style="stop-color:#290F52"/>
		<stop  offset="0.4949" style="stop-color:#200041"/>
		<stop  offset="1" style="stop-color:#0F001F"/>
	</linearGradient>
	<path class="st17" d="M637.7,597.6L283.8,393.1c-18.1-10.4-32.8-38.5-32.8-62.6V59.9c0-24.1,14.7-35.2,32.8-24.8l353.9,204.5
		c18.1,10.4,32.8,38.5,32.8,62.6v270.6C670.4,597,655.8,608,637.7,597.6z"/>
	<linearGradient id="SVGID_7_" gradientUnits="userSpaceOnUse" x1="287.0464" y1="54.4058" x2="659.5925" y2="614.6044">
		<stop  offset="1.010100e-02" style="stop-color:#9F19AB"/>
		<stop  offset="0.4293" style="stop-color:#5F27BD"/>
		<stop  offset="0.904" style="stop-color:#3D065F"/>
	</linearGradient>
	<path class="st18" d="M641.9,578.8L293,377.2c-14.6-9.3-23.6-27.7-23.6-46.7V58.1c0-4.5,4.9-7.3,8.7-5c0.5,0.3,0.8,0.5,1,0.6
		l349.3,201.8c17.3,10,23.6,27.7,23.6,46.7v271.6c0,4.8-5.2,7.8-9.4,5.4C642.3,579,642.1,578.9,641.9,578.8z"/>
	<path class="st19" d="M628.5,255.5L279.2,53.7c-0.2-0.1-0.6-0.3-1-0.6c-3.9-2.3-8.7,0.5-8.7,5v272.4c0,18.9,9,37.4,23.6,46.7
		l348.9,201.6c0.2,0.1,0.4,0.3,0.8,0.4c4.2,2.4,9.4-0.6,9.4-5.4V302.2C652,283.3,645.8,265.5,628.5,255.5z M648.4,573.8
		c0,1.6-1.3,2.6-2.6,2.6c-0.4,0-0.9-0.1-1.3-0.3L294.9,374c-13.1-8.4-21.7-25.5-21.7-43.5V58.1c0-1.3,1.1-2.1,2.1-2.1
		c0.4,0,0.7,0.1,1.1,0.3l350.3,202.4c18,10.4,21.7,29.4,21.7,43.5V573.8z"/>
	<linearGradient id="SVGID_8_" gradientUnits="userSpaceOnUse" x1="758.7429" y1="613.1426" x2="414.0817" y2="62.4208">
		<stop  offset="5.555560e-02" style="stop-color:#200041"/>
		<stop  offset="0.2576" style="stop-color:#210243"/>
		<stop  offset="0.3572" style="stop-color:#25084B"/>
		<stop  offset="0.4341" style="stop-color:#2C1358"/>
		<stop  offset="0.4697" style="stop-color:#311B61"/>
		<stop  offset="0.482" style="stop-color:#351F65"/>
		<stop  offset="0.4954" style="stop-color:#422C73"/>
		<stop  offset="0.5093" style="stop-color:#584188"/>
		<stop  offset="0.5235" style="stop-color:#765FA7"/>
		<stop  offset="0.5303" style="stop-color:#8770B8"/>
		<stop  offset="0.5366" style="stop-color:#7E67AE"/>
		<stop  offset="0.5617" style="stop-color:#5C468D"/>
		<stop  offset="0.5857" style="stop-color:#442E75"/>
		<stop  offset="0.6078" style="stop-color:#362066"/>
		<stop  offset="0.6263" style="stop-color:#311B61"/>
		<stop  offset="0.6724" style="stop-color:#2A1155"/>
		<stop  offset="0.7491" style="stop-color:#230446"/>
		<stop  offset="0.8131" style="stop-color:#200041"/>
		<stop  offset="1" style="stop-color:#200041"/>
	</linearGradient>
	<path class="st20" d="M647,234.7L293.1,30.2c-7.2-4.1-13.8-4.9-19.2-2.8c-0.7,0.3-9.8,5.1-10.5,5.5c0,0,0,0,0,0
		c5.6-2.7,12.7-2.2,20.4,2.2l353.9,204.5c18.1,10.4,32.8,38.5,32.8,62.6v270.6c0,15.1-5.7,25-14.4,27.9c0.7,0,1.6-0.2,2.9-1
		c0.4-0.2,10.3-5.8,10.7-6.1c6.2-4.4,10.1-13.3,10.1-25.7V297.3C679.7,273.1,665.1,245.1,647,234.7z"/>
	<radialGradient id="SVGID_9_" cx="660.972" cy="299.5162" r="58.6669" gradientUnits="userSpaceOnUse">
		<stop  offset="0" style="stop-color:#AF8AFC"/>
		<stop  offset="1" style="stop-color:#10054D"/>
	</radialGradient>
	<path class="st21" d="M639.3,238.8L285.4,34.4c-7.4-4.3-14.2-4.9-19.7-2.5c4.7-0.7,10.1,0.4,15.8,3.7L635.3,240
		c18.1,10.4,32.8,38.5,32.8,62.6v270.6c0,14.2-5.1,23.9-13,27.3c10.1-1.6,17-12,17-28.5V301.4C672,277.3,657.4,249.3,639.3,238.8z"
		/>
	<radialGradient id="SVGID_10_" cx="562.1802" cy="237.9314" r="234.6919" gradientUnits="userSpaceOnUse">
		<stop  offset="0" style="stop-color:#FA45C1"/>
		<stop  offset="0.2052" style="stop-color:#CB389D"/>
		<stop  offset="0.6676" style="stop-color:#571843"/>
		<stop  offset="1" style="stop-color:#000000"/>
	</radialGradient>
	<path class="st22" d="M715.3,545.5h-1.9V274.9c0-23.8-14.5-51.5-32.3-61.7L327.2,8.7l1-1.7L682,211.5c18.3,10.6,33.2,39,33.2,63.4
		V545.5z"/>
	<radialGradient id="SVGID_11_" cx="465.2094" cy="595.7063" r="96.577" gradientUnits="userSpaceOnUse">
		<stop  offset="0" style="stop-color:#FA45C1"/>
		<stop  offset="0.2052" style="stop-color:#CB389D"/>
		<stop  offset="0.6676" style="stop-color:#571843"/>
		<stop  offset="1" style="stop-color:#000000"/>
	</radialGradient>
	<path class="st23" d="M464.1,645.3c-5.7,0-11.1-1.1-15.2-3.5l-144.1-83.7l1-1.7l144.1,83.7c8.4,4.8,23,4.2,32.8-1.3l79.1-75.5
		l1.3,1.4l-79.4,75.7C478.2,643.7,471,645.3,464.1,645.3z"/>
	<g>
		<g>
			<g>
				<linearGradient id="SVGID_12_" gradientUnits="userSpaceOnUse" x1="256.3547" y1="379.0879" x2="314.4478" y2="339.8751">
					<stop  offset="0" style="stop-color:#FDD65B"/>
					<stop  offset="1.149237e-02" style="stop-color:#F7D159"/>
					<stop  offset="0.1287" style="stop-color:#BEA144"/>
					<stop  offset="0.2492" style="stop-color:#8B7632"/>
					<stop  offset="0.3704" style="stop-color:#605223"/>
					<stop  offset="0.4923" style="stop-color:#3E3416"/>
					<stop  offset="0.6153" style="stop-color:#231D0C"/>
					<stop  offset="0.7398" style="stop-color:#0F0D05"/>
					<stop  offset="0.8667" style="stop-color:#040301"/>
					<stop  offset="1" style="stop-color:#000000"/>
				</linearGradient>
				<polygon class="st24" points="317.3,343.4 277.5,320.2 233.6,345.3 233.6,389 273.3,411.9 273.3,411.9 273.3,411.9 273.3,411.9 
					273.3,411.9 317.3,387.1 				"/>
				<g class="st25">
					<linearGradient id="SVGID_13_" gradientUnits="userSpaceOnUse" x1="277.7045" y1="386.2249" x2="337.9845" y2="368.175">
						<stop  offset="3.535350e-02" style="stop-color:#FFA98C"/>
						<stop  offset="0.3169" style="stop-color:#FFB892"/>
						<stop  offset="0.8601" style="stop-color:#FEE1A3"/>
						<stop  offset="1" style="stop-color:#FEECA8"/>
					</linearGradient>
					<polygon class="st26" points="273.3,368.5 273.3,411.9 291.3,401.5 291.3,357.8 					"/>
					<linearGradient id="SVGID_14_" gradientUnits="userSpaceOnUse" x1="185.8918" y1="393.7351" x2="323.9769" y2="362.7809">
						<stop  offset="3.535350e-02" style="stop-color:#FFA98C"/>
						<stop  offset="0.3169" style="stop-color:#FFB892"/>
						<stop  offset="0.8601" style="stop-color:#FEE1A3"/>
						<stop  offset="1" style="stop-color:#FEECA8"/>
					</linearGradient>
					<polygon class="st27" points="273.3,368.5 273.3,411.9 233.6,389 233.6,345.3 					"/>
					<linearGradient id="SVGID_15_" gradientUnits="userSpaceOnUse" x1="282.5201" y1="313.2987" x2="260.9031" y2="354.4963">
						<stop  offset="3.535350e-02" style="stop-color:#FFA98C"/>
						<stop  offset="0.3169" style="stop-color:#FFB892"/>
						<stop  offset="0.8601" style="stop-color:#FEE1A3"/>
						<stop  offset="1" style="stop-color:#FEECA8"/>
					</linearGradient>
					<polygon class="st28" points="233.6,345.3 273.3,368.5 291.3,357.8 251.5,334.6 					"/>
				</g>
			</g>
		</g>
		<g>
			<g>
				<linearGradient id="SVGID_16_" gradientUnits="userSpaceOnUse" x1="256.3548" y1="322.4056" x2="314.4478" y2="283.1929">
					<stop  offset="0" style="stop-color:#FDD65B"/>
					<stop  offset="1.149237e-02" style="stop-color:#F7D159"/>
					<stop  offset="0.1287" style="stop-color:#BEA144"/>
					<stop  offset="0.2492" style="stop-color:#8B7632"/>
					<stop  offset="0.3704" style="stop-color:#605223"/>
					<stop  offset="0.4923" style="stop-color:#3E3416"/>
					<stop  offset="0.6153" style="stop-color:#231D0C"/>
					<stop  offset="0.7398" style="stop-color:#0F0D05"/>
					<stop  offset="0.8667" style="stop-color:#040301"/>
					<stop  offset="1" style="stop-color:#000000"/>
				</linearGradient>
				<polygon class="st29" points="317.3,286.7 277.5,263.5 233.6,288.6 233.6,332.3 273.3,355.2 273.3,355.2 273.3,355.2 
					273.3,355.2 273.3,355.2 317.3,330.4 				"/>
				<g class="st25">
					<linearGradient id="SVGID_17_" gradientUnits="userSpaceOnUse" x1="277.7045" y1="329.5425" x2="337.9845" y2="311.4927">
						<stop  offset="3.535350e-02" style="stop-color:#FFA98C"/>
						<stop  offset="0.3169" style="stop-color:#FFB892"/>
						<stop  offset="0.8601" style="stop-color:#FEE1A3"/>
						<stop  offset="1" style="stop-color:#FEECA8"/>
					</linearGradient>
					<polygon class="st30" points="273.3,311.9 273.3,355.2 291.3,344.8 291.3,301.1 					"/>
					<linearGradient id="SVGID_18_" gradientUnits="userSpaceOnUse" x1="185.8918" y1="337.0528" x2="323.9769" y2="306.0986">
						<stop  offset="3.535350e-02" style="stop-color:#FFA98C"/>
						<stop  offset="0.3169" style="stop-color:#FFB892"/>
						<stop  offset="0.8601" style="stop-color:#FEE1A3"/>
						<stop  offset="1" style="stop-color:#FEECA8"/>
					</linearGradient>
					<polygon class="st31" points="273.3,311.9 273.3,355.2 233.6,332.3 233.6,288.6 					"/>
					<linearGradient id="SVGID_19_" gradientUnits="userSpaceOnUse" x1="282.5201" y1="256.6164" x2="260.9031" y2="297.814">
						<stop  offset="3.535350e-02" style="stop-color:#FFA98C"/>
						<stop  offset="0.3169" style="stop-color:#FFB892"/>
						<stop  offset="0.8601" style="stop-color:#FEE1A3"/>
						<stop  offset="1" style="stop-color:#FEECA8"/>
					</linearGradient>
					<polygon class="st32" points="233.6,288.6 273.3,311.9 291.3,301.1 251.5,278 					"/>
				</g>
			</g>
		</g>
		<g>
			<g>
				<linearGradient id="SVGID_20_" gradientUnits="userSpaceOnUse" x1="256.3548" y1="265.196" x2="314.4478" y2="225.9833">
					<stop  offset="0" style="stop-color:#FDD65B"/>
					<stop  offset="1.149237e-02" style="stop-color:#F7D159"/>
					<stop  offset="0.1287" style="stop-color:#BEA144"/>
					<stop  offset="0.2492" style="stop-color:#8B7632"/>
					<stop  offset="0.3704" style="stop-color:#605223"/>
					<stop  offset="0.4923" style="stop-color:#3E3416"/>
					<stop  offset="0.6153" style="stop-color:#231D0C"/>
					<stop  offset="0.7398" style="stop-color:#0F0D05"/>
					<stop  offset="0.8667" style="stop-color:#040301"/>
					<stop  offset="1" style="stop-color:#000000"/>
				</linearGradient>
				<polygon class="st33" points="317.3,229.5 277.5,206.3 233.6,231.4 233.6,275.1 273.3,298 273.3,298 273.3,298 273.3,298 
					273.3,298 317.3,273.2 				"/>
				<g class="st25">
					<linearGradient id="SVGID_21_" gradientUnits="userSpaceOnUse" x1="277.7045" y1="272.3329" x2="337.9845" y2="254.2831">
						<stop  offset="3.535350e-02" style="stop-color:#FFA98C"/>
						<stop  offset="0.3169" style="stop-color:#FFB892"/>
						<stop  offset="0.8601" style="stop-color:#FEE1A3"/>
						<stop  offset="1" style="stop-color:#FEECA8"/>
					</linearGradient>
					<polygon class="st34" points="273.3,254.7 273.3,298 291.3,287.6 291.3,243.9 					"/>
					<linearGradient id="SVGID_22_" gradientUnits="userSpaceOnUse" x1="185.8918" y1="279.8432" x2="323.9769" y2="248.8889">
						<stop  offset="3.535350e-02" style="stop-color:#FFA98C"/>
						<stop  offset="0.3169" style="stop-color:#FFB892"/>
						<stop  offset="0.8601" style="stop-color:#FEE1A3"/>
						<stop  offset="1" style="stop-color:#FEECA8"/>
					</linearGradient>
					<polygon class="st35" points="273.3,254.7 273.3,298 233.6,275.1 233.6,231.4 					"/>
					<linearGradient id="SVGID_23_" gradientUnits="userSpaceOnUse" x1="282.5201" y1="199.4068" x2="260.9031" y2="240.6043">
						<stop  offset="3.535350e-02" style="stop-color:#FFA98C"/>
						<stop  offset="0.3169" style="stop-color:#FFB892"/>
						<stop  offset="0.8601" style="stop-color:#FEE1A3"/>
						<stop  offset="1" style="stop-color:#FEECA8"/>
					</linearGradient>
					<polygon class="st36" points="233.6,231.4 273.3,254.7 291.3,243.9 251.5,220.7 					"/>
				</g>
			</g>
		</g>
		<polygon class="st37" points="264.4,284.6 242.2,271.8 242.2,246.3 264.4,259.1 		"/>
		<path class="st37" d="M266.6,329.3c0,7.9-5.5,11-12.4,7.1c-6.8-4-12.4-13.5-12.4-21.4s5.5-11,12.4-7.1
			C261,311.9,266.6,321.5,266.6,329.3z"/>
		<polygon class="st37" points="246.5,388.8 239.6,370.9 246.5,361.1 260.5,369.2 267.5,387.1 260.5,396.9 		"/>
	</g>
	<g>
		<g>
			<g>
				<linearGradient id="SVGID_24_" gradientUnits="userSpaceOnUse" x1="589.1655" y1="496.3233" x2="647.2585" y2="457.1106">
					<stop  offset="0" style="stop-color:#2AF6FF"/>
					<stop  offset="1.522309e-02" style="stop-color:#29EEF7"/>
					<stop  offset="0.132" style="stop-color:#1FB7BE"/>
					<stop  offset="0.252" style="stop-color:#17868B"/>
					<stop  offset="0.3727" style="stop-color:#105D60"/>
					<stop  offset="0.4942" style="stop-color:#0A3B3E"/>
					<stop  offset="0.6167" style="stop-color:#062123"/>
					<stop  offset="0.7407" style="stop-color:#030F0F"/>
					<stop  offset="0.8672" style="stop-color:#010404"/>
					<stop  offset="1" style="stop-color:#000000"/>
				</linearGradient>
				<polygon class="st38" points="650.1,460.6 610.4,437.5 566.4,462.5 566.4,506.2 606.1,529.1 606.1,529.1 606.1,529.1 
					606.1,529.1 606.1,529.1 650.1,504.3 				"/>
				<g class="st25">
					<linearGradient id="SVGID_25_" gradientUnits="userSpaceOnUse" x1="610.5153" y1="503.4602" x2="670.7952" y2="485.4103">
						<stop  offset="3.535350e-02" style="stop-color:#138BBD"/>
						<stop  offset="0.2257" style="stop-color:#169AC7"/>
						<stop  offset="0.5946" style="stop-color:#1FC3DF"/>
						<stop  offset="1" style="stop-color:#2AF6FF"/>
					</linearGradient>
					<polygon class="st39" points="606.1,485.8 606.1,529.1 624.1,518.7 624.1,475 					"/>
					<linearGradient id="SVGID_26_" gradientUnits="userSpaceOnUse" x1="518.7026" y1="510.9705" x2="656.7876" y2="480.0162">
						<stop  offset="3.535350e-02" style="stop-color:#138BBD"/>
						<stop  offset="0.2257" style="stop-color:#169AC7"/>
						<stop  offset="0.5946" style="stop-color:#1FC3DF"/>
						<stop  offset="1" style="stop-color:#2AF6FF"/>
					</linearGradient>
					<polygon class="st40" points="606.1,485.8 606.1,529.1 566.4,506.2 566.4,462.5 					"/>
					<linearGradient id="SVGID_27_" gradientUnits="userSpaceOnUse" x1="615.3309" y1="430.5341" x2="593.7139" y2="471.7316">
						<stop  offset="3.535350e-02" style="stop-color:#138BBD"/>
						<stop  offset="0.2257" style="stop-color:#169AC7"/>
						<stop  offset="0.5946" style="stop-color:#1FC3DF"/>
						<stop  offset="1" style="stop-color:#2AF6FF"/>
					</linearGradient>
					<polygon class="st41" points="566.4,462.5 606.1,485.8 624.1,475 584.3,451.9 					"/>
				</g>
			</g>
		</g>
		<g>
			<g>
				<linearGradient id="SVGID_28_" gradientUnits="userSpaceOnUse" x1="589.1655" y1="418.2198" x2="647.2585" y2="379.007">
					<stop  offset="0" style="stop-color:#C211A1"/>
					<stop  offset="1.332426e-02" style="stop-color:#BD119D"/>
					<stop  offset="0.1476" style="stop-color:#8B0C73"/>
					<stop  offset="0.2851" style="stop-color:#600850"/>
					<stop  offset="0.4234" style="stop-color:#3E0533"/>
					<stop  offset="0.563" style="stop-color:#23031D"/>
					<stop  offset="0.7044" style="stop-color:#0F010D"/>
					<stop  offset="0.8486" style="stop-color:#040003"/>
					<stop  offset="1" style="stop-color:#000000"/>
				</linearGradient>
				<polygon class="st42" points="650.1,382.5 610.4,359.4 566.4,384.4 566.4,428.1 606.1,451 606.1,451 606.1,451 606.1,451 
					606.1,451 650.1,426.2 				"/>
				<g class="st25">
					<linearGradient id="SVGID_29_" gradientUnits="userSpaceOnUse" x1="610.5153" y1="425.3566" x2="670.7952" y2="407.3068">
						<stop  offset="3.535350e-02" style="stop-color:#9F19AB"/>
						<stop  offset="0.2438" style="stop-color:#AE25B1"/>
						<stop  offset="0.6455" style="stop-color:#D744BF"/>
						<stop  offset="1" style="stop-color:#FF63CE"/>
					</linearGradient>
					<polygon class="st43" points="606.1,407.7 606.1,451 624.1,440.6 624.1,396.9 					"/>
					<linearGradient id="SVGID_30_" gradientUnits="userSpaceOnUse" x1="518.7026" y1="432.8669" x2="656.7876" y2="401.9127">
						<stop  offset="3.535350e-02" style="stop-color:#9F19AB"/>
						<stop  offset="0.2438" style="stop-color:#AE25B1"/>
						<stop  offset="0.6455" style="stop-color:#D744BF"/>
						<stop  offset="1" style="stop-color:#FF63CE"/>
					</linearGradient>
					<polygon class="st44" points="606.1,407.7 606.1,451 566.4,428.1 566.4,384.4 					"/>
					<linearGradient id="SVGID_31_" gradientUnits="userSpaceOnUse" x1="615.3309" y1="352.4305" x2="593.7139" y2="393.6281">
						<stop  offset="3.535350e-02" style="stop-color:#9F19AB"/>
						<stop  offset="0.2438" style="stop-color:#AE25B1"/>
						<stop  offset="0.6455" style="stop-color:#D744BF"/>
						<stop  offset="1" style="stop-color:#FF63CE"/>
					</linearGradient>
					<polygon class="st45" points="566.4,384.4 606.1,407.7 624.1,396.9 584.3,373.8 					"/>
				</g>
			</g>
		</g>
		<g>
			<g>
				<linearGradient id="SVGID_32_" gradientUnits="userSpaceOnUse" x1="589.1655" y1="360.0619" x2="647.2585" y2="320.8492">
					<stop  offset="0" style="stop-color:#C211A1"/>
					<stop  offset="1.332426e-02" style="stop-color:#BD119D"/>
					<stop  offset="0.1476" style="stop-color:#8B0C73"/>
					<stop  offset="0.2851" style="stop-color:#600850"/>
					<stop  offset="0.4234" style="stop-color:#3E0533"/>
					<stop  offset="0.563" style="stop-color:#23031D"/>
					<stop  offset="0.7044" style="stop-color:#0F010D"/>
					<stop  offset="0.8486" style="stop-color:#040003"/>
					<stop  offset="1" style="stop-color:#000000"/>
				</linearGradient>
				<polygon class="st46" points="650.1,324.4 610.4,301.2 566.4,326.2 566.4,369.9 606.1,392.9 606.1,392.9 606.1,392.9 
					606.1,392.9 606.1,392.9 650.1,368.1 				"/>
				<g class="st25">
					<linearGradient id="SVGID_33_" gradientUnits="userSpaceOnUse" x1="610.5153" y1="367.1988" x2="670.7952" y2="349.149">
						<stop  offset="3.535350e-02" style="stop-color:#9F19AB"/>
						<stop  offset="0.2438" style="stop-color:#AE25B1"/>
						<stop  offset="0.6455" style="stop-color:#D744BF"/>
						<stop  offset="1" style="stop-color:#FF63CE"/>
					</linearGradient>
					<polygon class="st47" points="606.1,349.5 606.1,392.9 624.1,382.5 624.1,338.8 					"/>
					<linearGradient id="SVGID_34_" gradientUnits="userSpaceOnUse" x1="518.7026" y1="374.7091" x2="656.7877" y2="343.7548">
						<stop  offset="3.535350e-02" style="stop-color:#9F19AB"/>
						<stop  offset="0.2438" style="stop-color:#AE25B1"/>
						<stop  offset="0.6455" style="stop-color:#D744BF"/>
						<stop  offset="1" style="stop-color:#FF63CE"/>
					</linearGradient>
					<polygon class="st48" points="606.1,349.5 606.1,392.9 566.4,369.9 566.4,326.2 					"/>
					<linearGradient id="SVGID_35_" gradientUnits="userSpaceOnUse" x1="615.3309" y1="294.2727" x2="593.7139" y2="335.4702">
						<stop  offset="3.535350e-02" style="stop-color:#9F19AB"/>
						<stop  offset="0.2438" style="stop-color:#AE25B1"/>
						<stop  offset="0.6455" style="stop-color:#D744BF"/>
						<stop  offset="1" style="stop-color:#FF63CE"/>
					</linearGradient>
					<polygon class="st49" points="566.4,326.2 606.1,349.5 624.1,338.8 584.3,315.6 					"/>
				</g>
			</g>
		</g>
		<g>
			<g>
				<linearGradient id="SVGID_36_" gradientUnits="userSpaceOnUse" x1="589.1655" y1="300.5168" x2="647.2586" y2="261.304">
					<stop  offset="0" style="stop-color:#C211A1"/>
					<stop  offset="1.332426e-02" style="stop-color:#BD119D"/>
					<stop  offset="0.1476" style="stop-color:#8B0C73"/>
					<stop  offset="0.2851" style="stop-color:#600850"/>
					<stop  offset="0.4234" style="stop-color:#3E0533"/>
					<stop  offset="0.563" style="stop-color:#23031D"/>
					<stop  offset="0.7044" style="stop-color:#0F010D"/>
					<stop  offset="0.8486" style="stop-color:#040003"/>
					<stop  offset="1" style="stop-color:#000000"/>
				</linearGradient>
				<polygon class="st50" points="650.1,264.8 610.4,241.7 566.4,266.7 566.4,310.4 606.1,333.3 606.1,333.3 606.1,333.3 
					606.1,333.3 606.1,333.3 650.1,308.5 				"/>
				<g class="st25">
					<linearGradient id="SVGID_37_" gradientUnits="userSpaceOnUse" x1="610.5153" y1="307.6537" x2="670.7952" y2="289.6038">
						<stop  offset="3.535350e-02" style="stop-color:#9F19AB"/>
						<stop  offset="0.2438" style="stop-color:#AE25B1"/>
						<stop  offset="0.6455" style="stop-color:#D744BF"/>
						<stop  offset="1" style="stop-color:#FF63CE"/>
					</linearGradient>
					<polygon class="st51" points="606.1,290 606.1,333.3 624.1,322.9 624.1,279.2 					"/>
					<linearGradient id="SVGID_38_" gradientUnits="userSpaceOnUse" x1="518.7026" y1="315.1639" x2="656.7877" y2="284.2097">
						<stop  offset="3.535350e-02" style="stop-color:#9F19AB"/>
						<stop  offset="0.2438" style="stop-color:#AE25B1"/>
						<stop  offset="0.6455" style="stop-color:#D744BF"/>
						<stop  offset="1" style="stop-color:#FF63CE"/>
					</linearGradient>
					<polygon class="st52" points="606.1,290 606.1,333.3 566.4,310.4 566.4,266.7 					"/>
					<linearGradient id="SVGID_39_" gradientUnits="userSpaceOnUse" x1="615.3309" y1="234.7275" x2="593.7139" y2="275.9251">
						<stop  offset="3.535350e-02" style="stop-color:#9F19AB"/>
						<stop  offset="0.2438" style="stop-color:#AE25B1"/>
						<stop  offset="0.6455" style="stop-color:#D744BF"/>
						<stop  offset="1" style="stop-color:#FF63CE"/>
					</linearGradient>
					<polygon class="st53" points="566.4,266.7 606.1,290 624.1,279.2 584.3,256.1 					"/>
				</g>
			</g>
		</g>
		<path class="st37" d="M594.6,346.2l-20.9,11.9l-2.6,11.4l11.1,3.3l20.9-11.9L594.6,346.2z M573.8,365.1l1.1-4.8l6.1,10.5l-4.7-1.4
			L573.8,365.1z M575.8,359.3l13.6-7.8l6.5,11.2l-13.6,7.8L575.8,359.3z"/>
		<path class="st37" d="M591.6,314.2l4.2-8l5.7-3.2l-9.2-15.9l-5.7,3.2l-9.1-0.4c-0.2,0-0.3,0.1-0.4,0.3l-5,16.9
			c-0.1,0.3,0,0.7,0.3,1c0.2,0.3,0.6,0.5,0.8,0.4l0.4-0.2l-0.3,0.2c-0.2,0.1-0.2,0.5-0.1,0.9c0,0.1,0.1,0.1,0.1,0.2
			c0.2,0.3,0.4,0.5,0.6,0.6l17.2,4.2C591.4,314.4,591.6,314.3,591.6,314.2z M575.8,309l6.1-4.2c0.8,1,1.9,1.4,2.6,1
			c0.9-0.5,0.9-2.2,0-3.7c-0.9-1.5-2.3-2.4-3.2-1.9c-0.7,0.4-0.8,1.5-0.4,2.7l-6.7,3.1l4.3-14.4l8.2,0.4l7.8,13.4l-3.8,7.2
			L575.8,309z"/>
		<path class="st37" d="M596,423.4l-3.4-5.9c1.5-0.4,3.2-0.3,5,0.2c0.7,0.2,1.4,0.1,2-0.2c2.2-1.3,1.9-5.8-0.9-9.4
			c-1.5-2-3.6-3.2-5.1-3c-1.1,0.1-1.8,0.8-2.1,1.8c-0.6,1.7-1.4,3.3-2.5,4.4l-3.4-5.8l-3.3,1.9l1.5,2.6l-9.7,5.5
			c-1.1,0.6-1.8,1.9-2,3.7l-0.2,3c0,0.2-0.1,0.3-0.1,0.4l-1.3,1.7c-0.3,0.4-0.2,1,0.2,1.5c0.3,0.5,0.8,1,1.3,0.9l1.9-0.3
			c0.1,0,0.3,0,0.4,0.1l3,1.4c1.6,0.7,3,0.8,4.1,0.1l9.7-5.5l1.5,2.6L596,423.4z M580.4,426.4c-0.9,0.5-2,0.5-3.3-0.1l-3-1.4
			c-0.4-0.2-0.7-0.2-1-0.2l-0.6,0.1l0.5-0.7c0.2-0.3,0.3-0.6,0.3-1l0.2-3c0.1-1.4,0.7-2.4,1.6-2.9l9.7-5.5l5.3,9.2L580.4,426.4z"/>
		<path class="st37" d="M598.3,513l-5.7-9.9c-0.6-1-1.5-1.7-2.2-1.6l-1.7-2.9c2.5-2.4,2.3-7.9-0.8-13.2c-3.3-5.7-8.7-8.8-12-6.9
			c-3.3,1.9-3.3,8,0,13.7c3,5.2,7.8,8.2,11.1,7.3l1.7,2.9c-0.4,0.6-0.3,1.7,0.3,2.7l5.7,9.9c0.7,1.2,1.9,1.9,2.6,1.5l1-0.6
			C599,515.6,599,514.3,598.3,513z M585.9,495.7c-2.2,1.2-5.7-0.8-7.9-4.6c-2.2-3.8-2.2-7.8,0-9c2.2-1.2,5.7,0.8,7.9,4.6
			C588.1,490.5,588.1,494.5,585.9,495.7z"/>
	</g>
	<g>
		<g class="st1">
			<path class="st2" d="M229.6,713c-4.9,0-9.4-1.1-12.9-3.1l-57.9-112.3c-4.7-2.7-7.4-7-7.4-11.8c0-5.2,3.2-10.1,8.9-13.4l34.4-12.6
				c4.4-2.6,10-4,15.7-4c4.9,0,9.4,1.1,12.9,3.1l150.5,92.1c4.7,2.7,7.4,7,7.4,11.8c0,5.2-3.2,10.1-8.9,13.4l-127,32.8
				C240.8,711.6,235.2,713,229.6,713z"/>
			<path class="st3" d="M160.8,572.8l34.1-12.5c0.9-0.5,2.1-1.1,3.1-1.5c3.8-1.6,8.1-2.5,12.5-2.5c4,0,7.6,0.7,10.7,2.1
				c0.7,0.3,1.5,0.7,2.1,1.1l149.3,91.3c4.2,2.4,7.5,6.8,7.7,11c0,0.1,0,0.2,0,0.3c0.4,5.1-2.6,10-8.3,13.3l-125.7,32.4
				c-4,2.3-10.4,4-15.5,4c-5,0.3-9.9-0.6-13.6-2.7l-57.4-111.2c-4.1-2.4-6.9-7.1-7.2-11.2c0-0.2,0-0.4-0.1-0.6
				C152.1,581,155.1,576.1,160.8,572.8z"/>
			<path class="st4" d="M161.3,573.1l33.9-12.4c0.8-0.5,2.2-1.1,3.1-1.4c3.7-1.6,8-2.5,12.4-2.6c3.9,0,7.6,0.7,10.6,2.1
				c0.6,0.3,1.5,0.7,2.1,1.1l148.2,90.6c3.8,2.2,7.7,6.8,8.1,10.6c0,0.1,0,0.2,0,0.3c0.8,4.9-1.9,9.8-7.6,13.1l-124.4,32.1
				c-3.6,2.1-10.8,3.9-15.4,3.9c-5.2,0.7-10.5-0.2-14.4-2.4l-56.9-110.2c-3.7-2.1-6.6-7.5-7.1-11.2c0-0.2-0.1-0.4-0.1-0.5
				C152.9,581.3,155.6,576.4,161.3,573.1z"/>
			<path class="st5" d="M161.9,573.4l33.6-12.3c0.7-0.4,2.3-1.1,3-1.4c3.7-1.6,8-2.6,12.2-2.6c3.9,0,7.5,0.7,10.5,2.1
				c0.5,0.2,1.5,0.8,2,1.1l147,89.9c3.3,1.9,7.9,6.8,8.4,10.2c0,0.1,0,0.2,0.1,0.3c1.2,4.7-1.2,9.7-7,13l-123.1,31.8
				c-3.2,1.9-11.1,3.9-15.2,3.9c-5.3,1-11.1,0.3-15.1-2l-56.4-109.2c-3.3-1.9-6.4-7.9-6.9-11.2c0-0.2-0.1-0.3-0.1-0.5
				C153.6,581.7,156.1,576.7,161.9,573.4z"/>
			<path class="st6" d="M162.4,573.7l33.3-12.2c0.6-0.4,2.4-1.1,3-1.4c3.6-1.6,7.9-2.6,12.1-2.6c3.9,0,7.5,0.7,10.4,2.1
				c0.5,0.2,1.6,0.8,2,1.1l145.8,89.2c2.9,1.7,8.2,6.9,8.7,9.8c0,0.1,0.1,0.2,0.1,0.3c1.7,4.6-0.5,9.5-6.3,12.9l-121.8,31.5
				c-2.8,1.6-11.5,3.9-15.1,3.9c-5.4,1.3-11.7,0.8-15.9-1.7L163,598.2c-2.9-1.7-6.2-8.4-6.8-11.2c0-0.2-0.1-0.3-0.2-0.5
				C154.4,582,156.6,577,162.4,573.7z"/>
			<path class="st7" d="M162.9,574l33.1-12.1c0.5-0.3,2.4-1.1,3-1.3c3.6-1.6,7.8-2.7,12-2.7c3.8,0,7.4,0.7,10.3,2.1
				c0.4,0.2,1.6,0.9,2,1.1L368,649.5c2.5,1.4,9,6.8,9.1,9.3c0,0.1,0.1,0.2,0.1,0.3c2.1,4.4,0.2,9.4-5.7,12.8L250.9,703
				c-2.4,1.4-11.9,3.8-14.9,3.8c-5.5,1.6-12.2,1.2-16.6-1.3l-55.3-107.2c-2.5-1.4-6.5-8.7-6.7-11.2c-0.1-0.1-0.1-0.3-0.2-0.5
				C155.1,582.3,157.1,577.4,162.9,574z"/>
			<path class="st8" d="M163.5,574.3l32.8-12c0.4-0.3,2.5-1.1,3-1.3c3.6-1.6,7.7-2.7,11.9-2.7c3.8,0,7.3,0.7,10.2,2.1
				c0.3,0.2,1.6,0.9,1.9,1.1l143.5,87.8c2.1,1.2,9.4,6.8,9.4,8.9c0,0.1,0.1,0.2,0.1,0.2c2.6,4.2,0.9,9.2-5,12.6l-119.3,30.8
				c-2,1.2-12.2,3.8-14.8,3.8c-5.6,2-12.8,1.7-17.3-0.9l-54.8-106.1c-2-1.2-6.4-9.1-6.5-11.2c-0.1-0.1-0.2-0.3-0.3-0.4
				C155.8,582.7,157.6,577.7,163.5,574.3z"/>
			<path class="st9" d="M164,574.6l32.5-11.9c0.4-0.2,2.6-1.1,3-1.2c3.5-1.6,7.6-2.7,11.8-2.8c3.8-0.1,7.3,0.7,10.1,2.1
				c0.3,0.1,1.7,0.9,1.9,1.1l142.3,87c1.7,1,9.7,6.8,9.8,8.5c0.1,0.1,0.1,0.1,0.2,0.2c3.1,4,1.6,9.1-4.4,12.5l-118,30.5
				c-1.6,0.9-12.6,3.8-14.7,3.8c-5.8,2.3-13.4,2.1-18.1-0.6l-54.3-105.1c-1.6-0.9-6.3-9.5-6.4-11.2c-0.1-0.1-0.2-0.3-0.3-0.4
				C156.5,583.1,158.1,578,164,574.6z"/>
			<path class="st10" d="M164.6,574.9l32.2-11.8c0.3-0.2,2.7-1.1,3-1.2c3.5-1.6,7.6-2.8,11.7-2.8c3.7-0.1,7.2,0.7,10,2.1
				c0.2,0.1,1.7,1,1.9,1.1l141.1,86.3c1.3,0.7,10.1,6.8,10.1,8.1c0.1,0.1,0.1,0.1,0.2,0.2c3.6,3.9,2.3,8.9-3.7,12.4l-116.7,30.1
				c-1.2,0.7-13,3.7-14.5,3.7c-5.9,2.6-13.9,2.6-18.8-0.2l-53.7-104.1c-1.2-0.7-6.2-10-6.2-11.2c-0.1-0.1-0.2-0.2-0.3-0.4
				C157.2,583.4,158.6,578.4,164.6,574.9z"/>
			<path class="st11" d="M165.1,575.2l32-11.7c0.2-0.1,2.8-1.1,3-1.2c3.4-1.6,7.5-2.8,11.5-2.9c3.7-0.1,7.2,0.7,9.9,2.1
				c0.1,0.1,1.7,1,1.9,1.1l139.9,85.6c0.8,0.5,10.4,6.8,10.4,7.6c0.1,0.1,0.1,0.1,0.2,0.2c4.1,3.6,3,8.8-3.1,12.3l-115.5,29.8
				c-0.8,0.5-13.3,3.7-14.4,3.7c-6,2.9-14.5,3.1-19.6,0.1l-53.2-103.1c-0.8-0.5-6-10.4-6.1-11.2c-0.1-0.1-0.3-0.2-0.4-0.3
				C157.9,583.8,159.1,578.7,165.1,575.2z"/>
			<path class="st12" d="M165.6,575.6l31.7-11.6c0.1-0.1,2.9-1.1,3-1.1c3.4-1.7,7.4-2.8,11.4-2.9c3.7-0.1,7.1,0.8,9.8,2.1
				c0.1,0,1.8,1.1,1.8,1.1L362.2,648c0.4,0.2,10.8,6.8,10.8,7.2c0.1,0.1,0.1,0.1,0.2,0.2c4.6,3.4,3.7,8.6-2.4,12.1L256.6,697
				c-0.4,0.2-13.7,3.7-14.2,3.7c-6.1,3.3-15.1,3.5-20.3,0.5l-52.7-102.1c-0.4-0.2-5.9-10.8-5.9-11.2c-0.1-0.1-0.3-0.2-0.4-0.3
				C158.6,584.2,159.6,579,165.6,575.6z"/>
			<path d="M222.6,700.3L164.7,588c-5.4-3.1-4.7-8.6,1.5-12.2l34.4-12.6c6.2-3.6,15.7-4,21.1-0.9l150.5,92.1
				c5.4,3.1,4.7,8.6-1.5,12.2l-127,32.8C237.4,703,228,703.4,222.6,700.3z"/>
		</g>
		
			<linearGradient id="SVGID_40_" gradientUnits="userSpaceOnUse" x1="-3100.4387" y1="3423.1047" x2="-3094.2559" y2="3371.9563" gradientTransform="matrix(0.866 0.5 -1 0.5774 6345.6274 201.7225)">
			<stop  offset="2.525250e-02" style="stop-color:#D4D1D8"/>
			<stop  offset="1" style="stop-color:#EEEBF2"/>
		</linearGradient>
		<polygon class="st54" points="323.4,688.7 153,566.4 204.8,542.4 375.2,664.7 		"/>
		<g>
			<polygon class="st55" points="194.5,589.6 175.2,575.8 215.8,556.9 235.1,570.8 			"/>
			<polygon class="st56" points="219.7,607.7 200.4,593.9 241,575.1 260.3,588.9 			"/>
			<polygon class="st57" points="244.9,625.8 225.6,612 266.3,593.2 285.5,607 			"/>
			<polygon class="st58" points="270.1,643.9 250.9,630.1 291.5,611.3 310.7,625.1 			"/>
			<polygon class="st59" points="295.3,662 276.1,648.2 316.7,629.4 335.9,643.2 			"/>
			<polygon class="st60" points="320.5,680.1 301.3,666.3 341.9,647.5 361.2,661.3 			"/>
		</g>
		
			<linearGradient id="SVGID_41_" gradientUnits="userSpaceOnUse" x1="-3100.5764" y1="3423.3423" x2="-3095.0815" y2="3377.884" gradientTransform="matrix(0.866 0.5 -1 0.5774 6345.6274 201.7225)">
			<stop  offset="2.525250e-02" style="stop-color:#D4D1D8"/>
			<stop  offset="1" style="stop-color:#EEEBF2"/>
		</linearGradient>
		<polygon class="st61" points="323.4,688.7 153,566.4 204.8,542.4 337.8,682 		"/>
		
			<linearGradient id="SVGID_42_" gradientUnits="userSpaceOnUse" x1="-3113.9854" y1="3440.5513" x2="-3101.0332" y2="3394.1829" gradientTransform="matrix(0.866 0.5 -1 0.5774 6345.6274 201.7225)">
			<stop  offset="2.525250e-02" style="stop-color:#D4D1D8"/>
			<stop  offset="1" style="stop-color:#EEEBF2"/>
		</linearGradient>
		<polygon class="st62" points="273.4,698.8 145.1,560.5 203.8,542.5 332.1,680.8 		"/>
		<g>
			<polygon class="st63" points="178.5,587.6 164,572 210,557.9 224.5,573.5 			"/>
			<polygon class="st64" points="197.4,608.1 183,592.5 229,578.4 243.5,594 			"/>
			<polygon class="st65" points="216.4,628.6 201.9,613 248,598.9 262.4,614.5 			"/>
			<polygon class="st66" points="235.4,649.1 220.9,633.4 266.9,619.3 281.4,635 			"/>
			<polygon class="st67" points="254.4,669.5 239.9,653.9 285.9,639.8 300.4,655.4 			"/>
			<polygon class="st68" points="273.4,690 258.9,674.4 304.9,660.3 319.4,675.9 			"/>
		</g>
		
			<linearGradient id="SVGID_43_" gradientUnits="userSpaceOnUse" x1="-3114.9224" y1="3440.3071" x2="-3102.8589" y2="3397.1199" gradientTransform="matrix(0.866 0.5 -1 0.5774 6345.6274 201.7225)">
			<stop  offset="2.525250e-02" style="stop-color:#D4D1D8"/>
			<stop  offset="1" style="stop-color:#EEEBF2"/>
		</linearGradient>
		<polygon class="st69" points="273.4,698.8 145.1,560.5 203.8,542.5 291.5,693.5 		"/>
		
			<linearGradient id="SVGID_44_" gradientUnits="userSpaceOnUse" x1="-3135.3433" y1="3460.1626" x2="-3100.7458" y2="3401.2805" gradientTransform="matrix(0.866 0.5 -1 0.5774 6345.6274 201.7225)">
			<stop  offset="2.525250e-02" style="stop-color:#D4D1D8"/>
			<stop  offset="1" style="stop-color:#EEEBF2"/>
		</linearGradient>
		<polygon class="st70" points="222,704.4 139.2,555.2 202.7,543.6 285.5,692.9 		"/>
		<g>
			<polygon class="st71" points="163.5,585.3 154.2,568.5 203.9,559.4 213.2,576.3 			"/>
			<polygon class="st72" points="175.8,607.4 166.4,590.6 216.2,581.5 225.5,598.4 			"/>
			<polygon class="st73" points="188,629.5 178.7,612.7 228.4,603.6 237.8,620.5 			"/>
			<polygon class="st74" points="200.3,651.6 190.9,634.8 240.7,625.7 250,642.6 			"/>
			<polygon class="st75" points="212.6,673.7 203.2,656.9 252.9,647.8 262.3,664.7 			"/>
			<polygon class="st76" points="224.8,695.8 215.5,679 265.2,669.9 274.5,686.8 			"/>
		</g>
	</g>
	<g>
		<g class="st1">
			<path class="st2" d="M237.7,656.2c-5.1,0-9.8-1.1-13.5-3.2L46.9,551c-4.9-2.8-7.7-7.3-7.7-12.3c0-5.5,3.4-10.6,9.3-14l101-58.2
				c4.6-2.7,10.4-4.2,16.3-4.2c5.1,0,9.8,1.1,13.5,3.2l177.4,101.9c4.9,2.8,7.7,7.3,7.7,12.3c0,5.5-3.4,10.6-9.3,14L254,652
				C249.4,654.7,243.6,656.2,237.7,656.2z"/>
			<path class="st3" d="M150,466.9c4.6-2.7,10.5-4.1,16.3-4c2.3,0,4.5,0.3,6.5,0.8c2.3,0.5,5,1.6,6.8,2.7l176.8,101.6
				c4.9,2.8,7.4,7.3,7.1,12.2c-0.1,1.2-0.3,2.4-0.7,3.5c-1.2,3.6-4.8,7.5-8.9,9.9L254.2,651c-1.2,0.7-2.7,1.4-4.1,2
				c-3.7,1.4-7.8,2.2-12,2.3c-5.1,0-9.7-1.1-13.3-3.1L47.4,550.1c-4.9-2.8-7.4-7.3-7.1-12.2c0.1-1,0.3-2,0.6-3
				c1.1-3.8,4.8-7.9,9.1-10.4L150,466.9z"/>
			<path class="st4" d="M150.6,467.2c4.6-2.7,10.5-4.1,16.3-3.9c2.3,0.1,4.5,0.4,6.5,0.9c2.1,0.5,5.1,1.8,6.8,2.8l176.2,101.3
				c4.9,2.8,7.1,7.3,6.5,12c-0.2,1.1-0.5,2.2-0.9,3.4c-1.2,3.2-5.3,7.3-9.1,9.5l-98.5,56.8c-1.1,0.6-2.8,1.5-4,2
				c-3.6,1.4-7.7,2.3-11.9,2.3c-5,0.1-9.6-1-13.1-3L48,549.2c-4.9-2.8-7.1-7.3-6.5-12.1c0.1-1,0.4-1.9,0.7-2.9
				c1.1-3.4,5.4-7.8,9.3-10L150.6,467.2z"/>
			<path class="st5" d="M151.1,467.5c4.6-2.7,10.5-4,16.2-3.8c2.3,0.1,4.4,0.5,6.4,1c1.8,0.5,5.2,2,6.7,2.8l175.7,101
				c4.9,2.8,6.9,7.3,5.9,11.9c-0.2,1.1-0.7,2.1-1.1,3.2c-1.1,2.8-5.9,7.2-9.2,9.1l-97.2,56c-0.9,0.5-2.9,1.5-3.9,2
				c-3.6,1.4-7.6,2.3-11.7,2.4c-4.9,0.1-9.5-0.9-13-2.9L48.6,548.3c-4.9-2.8-6.9-7.3-5.8-12c0.2-0.9,0.6-1.8,0.9-2.7
				c1.1-3,6.1-7.6,9.5-9.6L151.1,467.5z"/>
			<path class="st6" d="M151.7,467.8c4.6-2.7,10.5-4,16.2-3.7c2.3,0.1,4.4,0.6,6.4,1.1c1.6,0.4,5.3,2.2,6.6,2.9L356,568.9
				c4.8,2.8,6.6,7.2,5.3,11.8c-0.3,1-0.8,2-1.3,3c-1.1,2.4-6.4,7-9.3,8.7l-96,55.3c-0.8,0.5-3,1.6-3.9,2c-3.5,1.4-7.5,2.4-11.5,2.5
				c-4.8,0.1-9.4-0.8-12.8-2.8L49.1,547.4c-4.9-2.8-6.6-7.3-5.2-11.8c0.3-0.9,0.7-1.7,1.1-2.6c1-2.6,6.7-7.5,9.7-9.2L151.7,467.8z"
				/>
			<path class="st7" d="M152.3,468.2c4.6-2.7,10.6-3.9,16.2-3.6c2.3,0.1,4.4,0.7,6.3,1.2c1.4,0.4,5.5,2.4,6.6,3l174.6,100.3
				c4.8,2.8,6.3,7.2,4.7,11.6c-0.4,1-1,1.9-1.5,2.9c-1,2.1-7,6.9-9.5,8.3l-94.7,54.6c-0.7,0.4-3,1.6-3.8,2
				c-3.4,1.4-7.3,2.4-11.3,2.6c-4.8,0.2-9.3-0.8-12.7-2.7L49.7,546.4c-4.9-2.8-6.3-7.3-4.6-11.7c0.3-0.8,0.7-1.7,1.3-2.4
				c0.6-2.3,7.3-7.3,9.9-8.8L152.3,468.2z"/>
			<path class="st8" d="M152.8,468.5c4.6-2.6,10.6-3.9,16.1-3.4c2.3,0.2,4.3,0.8,6.3,1.4c1.1,0.3,5.6,2.6,6.5,3.1l174,100
				c4.8,2.8,6.1,7.2,4.1,11.5c-0.4,0.9-1,1.8-1.7,2.7c-0.5,1.8-7.6,6.7-9.6,7.9L255,645.5c-0.6,0.3-3.1,1.7-3.7,2
				c-3.4,1.4-7.2,2.5-11.1,2.6c-4.7,0.2-9.2-0.7-12.5-2.6L50.3,545.5c-4.9-2.8-6.1-7.3-3.9-11.6c0.4-0.8,0.8-1.6,1.4-2.3
				c0.5-1.9,8-7.2,10.1-8.4L152.8,468.5z"/>
			<path class="st9" d="M153.4,468.8c4.6-2.6,10.6-3.8,16.1-3.3c2.3,0.2,4.3,0.9,6.2,1.5c0.9,0.3,5.7,2.8,6.4,3.2l173.4,99.7
				c4.8,2.8,5.9,7.2,3.5,11.3c-0.5,0.9-1.1,1.7-1.9,2.5c-0.4,1.5-8.1,6.6-9.8,7.5l-92.2,53.2c-0.5,0.3-3.2,1.7-3.7,2
				c-3.3,1.5-7.1,2.5-11,2.7c-4.6,0.2-9.1-0.6-12.4-2.5L50.8,544.6c-4.9-2.8-5.9-7.3-3.3-11.5c0.4-0.7,1-1.5,1.6-2.2
				c0.4-1.5,8.6-7,10.3-8L153.4,468.8z"/>
			<path class="st10" d="M153.9,469.1c4.6-2.6,10.6-3.8,16.1-3.2c2.3,0.2,4.3,1,6.2,1.6c0.7,0.2,5.8,3,6.4,3.3l172.9,99.4
				c4.8,2.8,5.6,7.2,2.9,11.2c-0.6,0.8-1.2,1.6-2.1,2.4c-0.3,1.1-8.7,6.4-9.9,7.1l-91,52.4c-0.4,0.2-3.2,1.8-3.6,2
				c-3.3,1.5-7,2.6-10.8,2.8c-4.6,0.3-9-0.5-12.2-2.4L51.4,543.7c-4.9-2.8-5.6-7.3-2.6-11.4c0.5-0.7,1.1-1.4,1.8-2
				c0.3-1.2,9.2-6.9,10.5-7.6L153.9,469.1z"/>
			<path class="st11" d="M154.5,469.4c4.6-2.6,10.7-3.7,16-3.1c2.3,0.3,4.3,1.1,6.1,1.7c0.4,0.2,5.9,3.2,6.3,3.4l172.3,99
				c4.8,2.8,5.4,7.2,2.3,11.1c-0.6,0.8-1.3,1.5-2.2,2.2c-0.2,0.7-9.2,6.3-10.1,6.8l-89.7,51.7c-0.2,0.1-3.3,1.9-3.5,2
				c-3.2,1.5-6.9,2.6-10.6,2.9c-4.5,0.3-8.9-0.5-12-2.3L51.9,542.8c-4.9-2.8-5.4-7.3-2-11.3c0.6-0.6,1.2-1.3,2-1.9
				c0.2-0.8,9.8-6.7,10.7-7.2L154.5,469.4z"/>
			<path class="st12" d="M155.1,469.8c4.6-2.6,10.7-3.7,16-3c2.3,0.3,4.2,1.2,6.1,1.8c0.2,0.1,6,3.3,6.2,3.5l171.8,98.7
				c4.8,2.7,5.2,7.2,1.7,10.9c-0.7,0.7-1.5,1.4-2.4,2.1c-0.1,0.4-9.8,6.1-10.2,6.4l-88.5,51c-0.1,0.1-3.4,1.9-3.5,2
				c-3.1,1.5-6.7,2.7-10.4,2.9c-4.4,0.3-8.8-0.4-11.9-2.2L52.5,541.9c-4.9-2.8-5.2-7.4-1.4-11.2c0.6-0.6,1.3-1.2,2.1-1.8
				c0.1-0.4,10.5-6.6,10.9-6.8L155.1,469.8z"/>
			<path d="M230.4,642.9L53.1,541c-5.6-3.2-4.9-8.9,1.6-12.7l101-58.2c6.5-3.8,16.3-4.2,22-0.9L355,571.1c5.6,3.2,4.9,8.9-1.6,12.7
				l-101,58.2C245.9,645.8,236.1,646.2,230.4,642.9z"/>
		</g>
		
			<linearGradient id="SVGID_45_" gradientUnits="userSpaceOnUse" x1="1341.2516" y1="551.782" x2="1665.3346" y2="551.782" gradientTransform="matrix(1 0 0 1 -1274.2094 0)">
			<stop  offset="5.555560e-02" style="stop-color:#200041"/>
			<stop  offset="0.2576" style="stop-color:#210243"/>
			<stop  offset="0.3572" style="stop-color:#25084B"/>
			<stop  offset="0.4341" style="stop-color:#2C1358"/>
			<stop  offset="0.4697" style="stop-color:#311B61"/>
			<stop  offset="0.482" style="stop-color:#351F65"/>
			<stop  offset="0.4954" style="stop-color:#422C73"/>
			<stop  offset="0.5093" style="stop-color:#584188"/>
			<stop  offset="0.5235" style="stop-color:#765FA7"/>
			<stop  offset="0.5303" style="stop-color:#8770B8"/>
			<stop  offset="0.5366" style="stop-color:#7E67AE"/>
			<stop  offset="0.5617" style="stop-color:#5C468D"/>
			<stop  offset="0.5857" style="stop-color:#442E75"/>
			<stop  offset="0.6078" style="stop-color:#362066"/>
			<stop  offset="0.6263" style="stop-color:#311B61"/>
			<stop  offset="0.6724" style="stop-color:#2A1155"/>
			<stop  offset="0.7491" style="stop-color:#230446"/>
			<stop  offset="0.8131" style="stop-color:#200041"/>
			<stop  offset="1" style="stop-color:#200041"/>
		</linearGradient>
		<path class="st77" d="M255.1,641.7l99.9-57.6c4-2.3,6-5.4,6-8.6c0-0.3,0-6.5,0-6.8c-0.3-3.7-3.2-1.7-8.5-4.7l-175-100.9
			c-10.3-5.9-25.8-6.6-34.7-1.4l-99.9,57.6c-4,2.3-6-1.7-6,1.5c0,0.3,0,7.7,0,7.9c0.3,3.7,3.2,7.6,8.5,10.6l175,100.9
			C230.6,646.2,246.2,646.9,255.1,641.7z"/>
		<linearGradient id="SVGID_46_" gradientUnits="userSpaceOnUse" x1="145.2843" y1="583.9866" x2="362.5597" y2="426.1505">
			<stop  offset="0" style="stop-color:#311B61"/>
			<stop  offset="0.2031" style="stop-color:#290F52"/>
			<stop  offset="0.4949" style="stop-color:#200041"/>
			<stop  offset="1" style="stop-color:#0F001F"/>
		</linearGradient>
		<path class="st78" d="M255.1,635l99.9-57.6c8.9-5.1,7.8-14.1-2.5-20.1l-175-100.9c-10.3-5.9-25.8-6.6-34.7-1.4l-99.9,57.6
			c-8.9,5.1-7.8,14.1,2.5,20.1l175,100.9C230.6,639.5,246.2,640.1,255.1,635z"/>
		
			<radialGradient id="SVGID_47_" cx="6198.8506" cy="585.4174" r="122.3191" gradientTransform="matrix(-1 0 0 1 6419.4673 0)" gradientUnits="userSpaceOnUse">
			<stop  offset="0" style="stop-color:#FFFFFF"/>
			<stop  offset="1" style="stop-color:#000000"/>
		</radialGradient>
		<path class="st79" d="M355,576.5l-99.9,57.6c-8.9,5.1-24.4,4.5-34.7-1.4l-175-100.9c-5.4-3.1-8.3-7.1-8.5-10.9
			c-0.2,4.1,2.7,8.4,8.5,11.8l175,100.9c10.3,5.9,25.8,6.6,34.7,1.4l99.9-57.6c4.2-2.4,6.2-5.7,6-9.2
			C360.8,571.4,358.8,574.3,355,576.5z"/>
		<path class="st80" d="M346.8,560.2L172.5,459.8c-7.5-4.4-19-4.8-25.5-1.1l-97.8,56.4c-6.5,3.8-5.7,10.4,1.8,14.7l174.3,100.5
			c7.5,4.4,19,4.8,25.5,1.1l97.8-56.4C355.1,571.2,354.3,564.6,346.8,560.2z"/>
		<linearGradient id="SVGID_48_" gradientUnits="userSpaceOnUse" x1="47.0555" y1="538.4696" x2="328.0989" y2="538.4696">
			<stop  offset="0" style="stop-color:#861EB2"/>
			<stop  offset="0.4293" style="stop-color:#5F27BD"/>
			<stop  offset="0.904" style="stop-color:#3D065F"/>
		</linearGradient>
		<path class="st81" d="M328.1,551.3l-158.2-91.2c-6.1-3.5-16.1-3.5-22.2,0l-96,55.3c-6.2,3.6-6.2,9.3-0.1,12.8l158.1,91.2
			L328.1,551.3z"/>
		<path d="M316.7,605.6l-14.1,8.2v0c0-2.6,1.6-5.6,3.5-6.7l7.1-4.1C315.2,601.9,316.7,603,316.7,605.6L316.7,605.6z"/>
		<g>
			<g>
				<path class="st82" d="M55.7,528.2c-0.2,0-0.3-0.1-0.4-0.2c-0.1-0.2-0.1-0.5,0.2-0.7l4.7-2.8c0.2-0.1,0.5-0.1,0.7,0.2
					c0.1,0.2,0.1,0.5-0.2,0.7l-4.7,2.8C55.8,528.1,55.8,528.2,55.7,528.2z"/>
			</g>
			<path class="st82" d="M69.2,535.9c-0.2,0-0.3-0.1-0.4-0.2c-0.1-0.2-0.1-0.5,0.2-0.7l4.7-2.8c0.2-0.1,0.5-0.1,0.7,0.2
				c0.1,0.2,0.1,0.5-0.2,0.7l-4.7,2.8C69.3,535.9,69.2,535.9,69.2,535.9z"/>
			<path class="st82" d="M82.7,543.7c-0.2,0-0.3-0.1-0.4-0.2c-0.1-0.2-0.1-0.5,0.2-0.7l4.7-2.8c0.2-0.1,0.5-0.1,0.7,0.2
				c0.1,0.2,0.1,0.5-0.2,0.7l-4.7,2.8C82.8,543.6,82.7,543.7,82.7,543.7z"/>
			<path class="st82" d="M96.1,551.4c-0.2,0-0.3-0.1-0.4-0.2c-0.1-0.2-0.1-0.5,0.2-0.7l4.7-2.8c0.2-0.1,0.5-0.1,0.7,0.2
				c0.1,0.2,0.1,0.5-0.2,0.7l-4.7,2.8C96.3,551.4,96.2,551.4,96.1,551.4z"/>
			<path class="st82" d="M109.6,559.2c-0.2,0-0.3-0.1-0.4-0.2c-0.1-0.2-0.1-0.5,0.2-0.7l4.7-2.8c0.2-0.1,0.5-0.1,0.7,0.2
				c0.1,0.2,0.1,0.5-0.2,0.7l-4.7,2.8C109.8,559.1,109.7,559.2,109.6,559.2z"/>
			<path class="st82" d="M123.1,566.9c-0.2,0-0.3-0.1-0.4-0.2c-0.1-0.2-0.1-0.5,0.2-0.7l4.7-2.8c0.2-0.1,0.5-0.1,0.7,0.2
				c0.1,0.2,0.1,0.5-0.2,0.7l-4.7,2.8C123.3,566.9,123.2,566.9,123.1,566.9z"/>
			<path class="st82" d="M136.6,574.7c-0.2,0-0.3-0.1-0.4-0.2c-0.1-0.2-0.1-0.5,0.2-0.7l4.7-2.8c0.2-0.1,0.5-0.1,0.7,0.2
				c0.1,0.2,0.1,0.5-0.2,0.7l-4.7,2.8C136.8,574.6,136.7,574.7,136.6,574.7z"/>
			<path class="st82" d="M150.1,582.4c-0.2,0-0.3-0.1-0.4-0.2c-0.1-0.2-0.1-0.5,0.2-0.7l4.7-2.8c0.2-0.1,0.5-0.1,0.7,0.2
				c0.1,0.2,0.1,0.5-0.2,0.7l-4.7,2.8C150.3,582.4,150.2,582.4,150.1,582.4z"/>
			<path class="st82" d="M163.6,590.2c-0.2,0-0.3-0.1-0.4-0.2c-0.1-0.2-0.1-0.5,0.2-0.7l4.7-2.8c0.2-0.1,0.5-0.1,0.7,0.2
				c0.1,0.2,0.1,0.5-0.2,0.7l-4.7,2.8C163.8,590.1,163.7,590.2,163.6,590.2z"/>
			<path class="st82" d="M177.1,597.9c-0.2,0-0.3-0.1-0.4-0.2c-0.1-0.2-0.1-0.5,0.2-0.7l4.7-2.8c0.2-0.1,0.5-0.1,0.7,0.2
				c0.1,0.2,0.1,0.5-0.2,0.7l-4.7,2.8C177.3,597.9,177.2,597.9,177.1,597.9z"/>
			<path class="st82" d="M190.6,605.7c-0.2,0-0.3-0.1-0.4-0.2c-0.1-0.2-0.1-0.5,0.2-0.7l4.7-2.8c0.2-0.1,0.5-0.1,0.7,0.2
				c0.1,0.2,0.1,0.5-0.2,0.7l-4.7,2.8C190.7,605.6,190.7,605.7,190.6,605.7z"/>
			<g>
				<path class="st82" d="M204.1,613.4c-0.2,0-0.3-0.1-0.4-0.2c-0.1-0.2-0.1-0.5,0.2-0.7l4.7-2.8c0.2-0.1,0.5-0.1,0.7,0.2
					c0.1,0.2,0.1,0.5-0.2,0.7l-4.7,2.8C204.2,613.4,204.2,613.4,204.1,613.4z"/>
			</g>
		</g>
		<g>
			<path d="M331.1,568L331.1,568c-4.2-2.8-9.6-3-13.9-0.5l-78,45.4c-3.5,2-3.7,7-0.3,9.3l0,0c4.6,3.1,10.5,3.3,15.3,0.6l76.6-44.6
				C334.6,575.9,334.8,570.5,331.1,568z"/>
			<linearGradient id="SVGID_49_" gradientUnits="userSpaceOnUse" x1="271.9508" y1="576.9606" x2="320.0957" y2="635.4799">
				<stop  offset="0" style="stop-color:#311B61"/>
				<stop  offset="0.2031" style="stop-color:#290F52"/>
				<stop  offset="0.4949" style="stop-color:#200041"/>
				<stop  offset="1" style="stop-color:#0F001F"/>
			</linearGradient>
			<path class="st83" d="M331.1,565.7L331.1,565.7c-4.2-2.8-9.6-3-13.9-0.5l-78,45.4c-3.5,2-3.7,7-0.3,9.3l0,0
				c4.6,3.1,10.5,3.3,15.3,0.6l76.6-44.6C334.6,573.6,334.8,568.2,331.1,565.7z"/>
			<path d="M306.4,591.5l-16-10.9c-1.5-1-3.4-1.1-4.9-0.2l-19.4,11.3c-1.2,0.7-1.3,2.4-0.1,3.2l16,10.9c1.5,1,3.4,1.1,4.9,0.2
				l19.4-11.3C307.5,594,307.5,592.3,306.4,591.5z"/>
			<linearGradient id="SVGID_50_" gradientUnits="userSpaceOnUse" x1="276.5752" y1="582.5834" x2="349.342" y2="653.1227">
				<stop  offset="0" style="stop-color:#311B61"/>
				<stop  offset="0.2031" style="stop-color:#290F52"/>
				<stop  offset="0.4949" style="stop-color:#200041"/>
				<stop  offset="1" style="stop-color:#0F001F"/>
			</linearGradient>
			<path class="st84" d="M306.4,590.2l-16-10.9c-1.5-1-3.4-1.1-4.9-0.2l-19.4,11.3c-1.2,0.7-1.3,2.4-0.1,3.2l16,10.9
				c1.5,1,3.4,1.1,4.9,0.2l19.4-11.3C307.5,592.7,307.5,591,306.4,590.2z"/>
			
				<radialGradient id="SVGID_51_" cx="8148.0874" cy="598.3017" r="15.6563" gradientTransform="matrix(-1 0 0 1 8434.3066 0)" gradientUnits="userSpaceOnUse">
				<stop  offset="0" style="stop-color:#FFFFFF"/>
				<stop  offset="1" style="stop-color:#000000"/>
			</radialGradient>
			<path class="st85" d="M266,592.5l16,10.9c1.5,1,3.4,1.1,4.9,0.2l19.4-11.3c0.4-0.3,0.7-0.6,0.8-1.1c0.2,0.8,0,1.7-0.8,2.2
				l-19.4,11.3c-1.5,0.9-3.4,0.8-4.9-0.2l-16-10.9c-0.7-0.5-1-1.4-0.7-2.1C265.4,591.9,265.7,592.3,266,592.5z"/>
			
				<radialGradient id="SVGID_52_" cx="8120.7817" cy="577.7815" r="7.2276" gradientTransform="matrix(-1 0 0 1 8434.3066 0)" gradientUnits="userSpaceOnUse">
				<stop  offset="0" style="stop-color:#FFFFFF"/>
				<stop  offset="1" style="stop-color:#000000"/>
			</radialGradient>
			<polygon class="st86" points="321.5,583.5 321.5,581.1 306.6,571.4 305.5,572 320.3,581.7 320.3,584.2 			"/>
			<polygon points="320.8,584 320.8,581.7 305.9,572 304.8,572.5 319.6,582.3 319.6,584.7 			"/>
			
				<radialGradient id="SVGID_53_" cx="8175.6211" cy="609.6102" r="7.2276" gradientTransform="matrix(-1 0 0 1 8434.3066 0)" gradientUnits="userSpaceOnUse">
				<stop  offset="0" style="stop-color:#FFFFFF"/>
				<stop  offset="1" style="stop-color:#000000"/>
			</radialGradient>
			<polygon class="st87" points="266.7,615.3 266.7,613 251.7,603.2 250.7,603.8 265.4,613.6 265.4,616 			"/>
			<polygon points="266,615.8 266,613.5 251,603.8 250,604.3 264.7,614.1 264.7,616.5 			"/>
			
				<linearGradient id="SVGID_54_" gradientUnits="userSpaceOnUse" x1="8152.0542" y1="603.9158" x2="8144.3379" y2="579.2521" gradientTransform="matrix(-1 0 0 1 8434.3066 0)">
				<stop  offset="0" style="stop-color:#311B61"/>
				<stop  offset="0.2031" style="stop-color:#290F52"/>
				<stop  offset="0.4949" style="stop-color:#200041"/>
				<stop  offset="1" style="stop-color:#0F001F"/>
			</linearGradient>
			<path class="st88" d="M295.5,590.4l-6.8-4.7c-1-0.7-2.3-0.8-3.4-0.1l-8.6,5c-1,0.6-1,2-0.1,2.6l6.8,4.7c1,0.7,2.3,0.8,3.4,0.1
				l8.6-5C296.4,592.4,296.4,591,295.5,590.4z"/>
		</g>
		<g>
			<linearGradient id="SVGID_55_" gradientUnits="userSpaceOnUse" x1="37.1667" y1="597.4406" x2="371.9626" y2="597.4406">
				<stop  offset="5.555560e-02" style="stop-color:#200041"/>
				<stop  offset="0.2576" style="stop-color:#210243"/>
				<stop  offset="0.3572" style="stop-color:#25084B"/>
				<stop  offset="0.4341" style="stop-color:#2C1358"/>
				<stop  offset="0.4697" style="stop-color:#311B61"/>
				<stop  offset="0.482" style="stop-color:#351F65"/>
				<stop  offset="0.4954" style="stop-color:#422C73"/>
				<stop  offset="0.5093" style="stop-color:#584188"/>
				<stop  offset="0.5235" style="stop-color:#765FA7"/>
				<stop  offset="0.5303" style="stop-color:#8770B8"/>
				<stop  offset="0.5366" style="stop-color:#7E67AE"/>
				<stop  offset="0.5617" style="stop-color:#5C468D"/>
				<stop  offset="0.5857" style="stop-color:#442E75"/>
				<stop  offset="0.6078" style="stop-color:#362066"/>
				<stop  offset="0.6263" style="stop-color:#311B61"/>
				<stop  offset="0.6724" style="stop-color:#2A1155"/>
				<stop  offset="0.7491" style="stop-color:#230446"/>
				<stop  offset="0.8131" style="stop-color:#200041"/>
				<stop  offset="1" style="stop-color:#200041"/>
			</linearGradient>
			<path class="st89" d="M360.9,579.3c-0.2,3.1-2.1,6-6,8.2l-42.1,24.3l5.2,3.8l36.9-21.3c4-2.3,6-5.4,6-8.6
				C361,585.5,361,580.6,360.9,579.3z"/>
			<linearGradient id="SVGID_56_" gradientUnits="userSpaceOnUse" x1="37.1667" y1="577.0698" x2="371.9624" y2="577.0698">
				<stop  offset="5.555560e-02" style="stop-color:#200041"/>
				<stop  offset="0.2576" style="stop-color:#210243"/>
				<stop  offset="0.3572" style="stop-color:#25084B"/>
				<stop  offset="0.4341" style="stop-color:#2C1358"/>
				<stop  offset="0.4697" style="stop-color:#311B61"/>
				<stop  offset="0.482" style="stop-color:#351F65"/>
				<stop  offset="0.4954" style="stop-color:#422C73"/>
				<stop  offset="0.5093" style="stop-color:#584188"/>
				<stop  offset="0.5235" style="stop-color:#765FA7"/>
				<stop  offset="0.5303" style="stop-color:#8770B8"/>
				<stop  offset="0.5366" style="stop-color:#7E67AE"/>
				<stop  offset="0.5617" style="stop-color:#5C468D"/>
				<stop  offset="0.5857" style="stop-color:#442E75"/>
				<stop  offset="0.6078" style="stop-color:#362066"/>
				<stop  offset="0.6263" style="stop-color:#311B61"/>
				<stop  offset="0.6724" style="stop-color:#2A1155"/>
				<stop  offset="0.7491" style="stop-color:#230446"/>
				<stop  offset="0.8131" style="stop-color:#200041"/>
				<stop  offset="1" style="stop-color:#200041"/>
			</linearGradient>
			<path class="st90" d="M170.3,614.8l-125-72c-6.3-3.6-9.2-8.4-8.4-12.8c-0.1,0.2-0.1,0.5-0.1,1c0,0.3,0,7.7,0,7.9
				c0.3,3.7,3.2,7.6,8.5,10.6l129.3,74.6L170.3,614.8z"/>
		</g>
	</g>
	<path class="st91" d="M417.2,298.4c12.3,7.1,22.3,1.4,22.3-12.7c0-14.1-10-31.3-22.3-38.4c-12.3-7.1-22.3-1.4-22.3,12.7
		C395,274.1,404.9,291.3,417.2,298.4z M491.9,291.4c-20.3-11.7-34.7,75.4-57.4,62.3c-22.6-13.1-30.8-51.9-48.8-62.2
		c-12.4-7.2-26.6,44-36.7,51.8v0.8l190.1,109.8v-2.1C523.6,423.9,507.5,300.4,491.9,291.4z M532.8,296.2v2.6L495.7,277v-3.4
		l-7.6-4.4v3.4l-28.9-17v-2l-7-4v8l7,4v-3.7l27.7,16.3c-1.2,0-2.4,0.1-3.5,0.5c-7.3,2.2-12.8,11.4-17.6,21.3l-3.3-1.9
		c-0.3-0.2-0.7-0.2-1,0c-0.3,0.2-0.5,0.5-0.5,0.9v8.7c0,0.4,0.2,0.7,0.5,0.9l7.6,4.4c0.2,0.1,0.3,0.1,0.5,0.1c0.2,0,0.3,0,0.5-0.1
		c0.3-0.2,0.5-0.5,0.5-0.9v-8.7c0-0.4-0.2-0.7-0.5-0.9l-2.6-1.5c4.5-9.1,9.9-18.4,16.5-20.4c1.4-0.4,2.8-0.5,4.2-0.3v1.7l7.6,4.4
		V280c6,5.4,14.6,18.6,19.7,39.5l-2.3-1.3c-0.3-0.2-0.7-0.2-1,0c-0.3,0.2-0.5,0.5-0.5,0.9v8.7c0,0.4,0.2,0.7,0.5,0.9l7.6,4.4
		c0.2,0.1,0.3,0.1,0.5,0.1c0.2,0,0.3,0,0.5-0.1c0.3-0.2,0.5-0.5,0.5-0.9v-8.7c0-0.4-0.2-0.7-0.5-0.9l-3-1.7
		c-3.9-17.3-10.8-31-17.2-38.7l32.3,19v3.1l7,4v-8L532.8,296.2z M468.5,299.8v6.4l-5.6-3.2v-6.4L468.5,299.8z M519.3,324v6.4
		l-5.6-3.3v-6.4L519.3,324z"/>
	<linearGradient id="SVGID_57_" gradientUnits="userSpaceOnUse" x1="423.7491" y1="307.5322" x2="401.3629" y2="228.4338">
		<stop  offset="3.535350e-02" style="stop-color:#FFBA78"/>
		<stop  offset="0.395" style="stop-color:#FFC987"/>
		<stop  offset="1" style="stop-color:#FEECA8"/>
	</linearGradient>
	<path class="st92" d="M436.5,286.7c0,14.1-10,19.8-22.3,12.7c-12.3-7.1-22.3-24.3-22.3-38.4c0-14.1,10-19.8,22.3-12.7
		C426.5,255.4,436.5,272.6,436.5,286.7z"/>
	<linearGradient id="SVGID_58_" gradientUnits="userSpaceOnUse" x1="462.7457" y1="449.4492" x2="406.0336" y2="278.8151">
		<stop  offset="3.535350e-02" style="stop-color:#138BBD"/>
		<stop  offset="0.2257" style="stop-color:#169AC7"/>
		<stop  offset="0.5946" style="stop-color:#1FC3DF"/>
		<stop  offset="1" style="stop-color:#2AF6FF"/>
	</linearGradient>
	<path class="st93" d="M346.1,345.1l190.1,109.8v-2.1c-15.6-27.8-31.7-151.3-47.2-160.3c-20.3-11.7-34.7,75.4-57.4,62.3
		c-22.6-13.1-30.8-51.9-48.8-62.2c-12.4-7.2-26.6,44-36.7,51.8V345.1z"/>
	<radialGradient id="SVGID_59_" cx="496.0712" cy="280.4932" r="89.0034" gradientUnits="userSpaceOnUse">
		<stop  offset="0" style="stop-color:#FA45C1"/>
		<stop  offset="0.2052" style="stop-color:#CB389D"/>
		<stop  offset="0.6676" style="stop-color:#571843"/>
		<stop  offset="1" style="stop-color:#000000"/>
	</radialGradient>
	<path class="st94" d="M529.8,297.1v2.6L492.8,278v-3.4l-7.6-4.4v3.4l-28.9-17v-2l-7-4v8l7,4v-3.7l27.7,16.3c-1.2,0-2.4,0.1-3.5,0.5
		c-7.3,2.2-12.8,11.4-17.6,21.3l-3.3-1.9c-0.3-0.2-0.7-0.2-1,0c-0.3,0.2-0.5,0.5-0.5,0.9v8.7c0,0.4,0.2,0.7,0.5,0.9l7.6,4.4
		c0.2,0.1,0.3,0.1,0.5,0.1c0.2,0,0.3,0,0.5-0.1c0.3-0.2,0.5-0.5,0.5-0.9v-8.7c0-0.4-0.2-0.7-0.5-0.9l-2.6-1.5
		c4.5-9.1,9.9-18.4,16.5-20.4c1.4-0.4,2.8-0.5,4.2-0.3v1.7l7.6,4.4v-2.3c6,5.4,14.6,18.6,19.7,39.5l-2.3-1.3c-0.3-0.2-0.7-0.2-1,0
		c-0.3,0.2-0.5,0.5-0.5,0.9v8.7c0,0.4,0.2,0.7,0.5,0.9l7.6,4.4c0.2,0.1,0.3,0.1,0.5,0.1c0.2,0,0.3,0,0.5-0.1
		c0.3-0.2,0.5-0.5,0.5-0.9v-8.7c0-0.4-0.2-0.7-0.5-0.9l-3-1.7c-3.9-17.3-10.8-31-17.2-38.7l32.3,19v3.1l7,4v-8L529.8,297.1z
		 M465.6,307.2l-5.6-3.2v-6.4l5.6,3.2V307.2z M516.3,331.4l-5.6-3.3v-6.4l5.6,3.2V331.4z"/>
	<linearGradient id="SVGID_60_" gradientUnits="userSpaceOnUse" x1="141.2592" y1="571.8722" x2="157.1784" y2="503.2205">
		<stop  offset="3.535350e-02" style="stop-color:#FFA98C"/>
		<stop  offset="0.3169" style="stop-color:#FFB892"/>
		<stop  offset="0.8601" style="stop-color:#FEE1A3"/>
		<stop  offset="1" style="stop-color:#FEECA8"/>
	</linearGradient>
	<path class="st95" d="M153.2,532.6c-5.1,0-9.9-1.2-13.5-3.2c-3.8-2.2-5.9-5.2-5.9-8.4c0-3.2,2.1-6.1,5.8-8.3
		c3.6-2.1,8.3-3.2,13.3-3.2c5.1,0,9.9,1.2,13.5,3.2c3.8,2.2,5.9,5.2,5.9,8.4c0,3.2-2.1,6.1-5.8,8.3
		C162.9,531.4,158.2,532.6,153.2,532.6z M152.9,511.5c-4.7,0-9.1,1-12.3,2.9c-3.1,1.8-4.8,4.1-4.8,6.6c0,2.5,1.7,4.8,4.9,6.6
		c3.3,1.9,7.8,3,12.5,3c4.7,0,9.1-1,12.3-2.9c3.1-1.8,4.8-4.1,4.8-6.6c0-2.5-1.7-4.8-4.9-6.6C162.1,512.5,157.7,511.5,152.9,511.5z"
		/>
	<linearGradient id="SVGID_61_" gradientUnits="userSpaceOnUse" x1="219.213" y1="564.1803" x2="201.8014" y2="510.4532">
		<stop  offset="3.535350e-02" style="stop-color:#FFA98C"/>
		<stop  offset="0.3169" style="stop-color:#FFB892"/>
		<stop  offset="0.8601" style="stop-color:#FEE1A3"/>
		<stop  offset="1" style="stop-color:#FEECA8"/>
	</linearGradient>
	<path class="st96" d="M175.5,577.1l-1.8-0.6l-0.1-0.6c-0.4-2.5-3.8-7.4-7.2-12.1c-4.9-7-9.9-14.2-9-18.2c0.2-1,0.8-1.8,1.8-2.4
		c4.9-2.8,12-2.7,19.6-2.6c8.4,0.1,17,0.3,23.3-3.4c1-0.6,1.7-1.4,1.9-2.5c1-4.3-4.6-12.3-9-18.8c-0.3-0.5-0.2-1.1,0.3-1.4
		c0.5-0.3,1.1-0.2,1.4,0.3c4.9,7.1,10.5,15.2,9.3,20.3c-0.4,1.6-1.3,2.9-2.9,3.7c-6.8,3.9-15.7,3.8-24.3,3.7
		c-7.3-0.1-14.2-0.2-18.6,2.3c-0.4,0.3-0.7,0.6-0.8,1.1c-0.7,3.2,4.5,10.7,8.7,16.6c3.5,4.9,6.5,9.3,7.3,12.2l86.2-49.8
		c0.5-0.3,1.1-0.1,1.4,0.4c0.3,0.5,0.1,1.1-0.4,1.4L175.5,577.1z"/>
	<g>
		
			<radialGradient id="SVGID_62_" cx="985.0818" cy="6219.209" r="6.3689" gradientTransform="matrix(0.4744 0.8803 -0.8803 0.4744 5203.0859 -3309.4929)" gradientUnits="userSpaceOnUse">
			<stop  offset="9.595960e-02" style="stop-color:#8493BA"/>
			<stop  offset="0.2117" style="stop-color:#606C90"/>
			<stop  offset="0.3258" style="stop-color:#444D6E"/>
			<stop  offset="0.4337" style="stop-color:#303756"/>
			<stop  offset="0.5332" style="stop-color:#232A47"/>
			<stop  offset="0.6162" style="stop-color:#1F2542"/>
			<stop  offset="0.7061" style="stop-color:#242A49"/>
			<stop  offset="0.8335" style="stop-color:#34395B"/>
			<stop  offset="0.9827" style="stop-color:#4D5179"/>
			<stop  offset="0.9848" style="stop-color:#4D517A"/>
		</radialGradient>
		<path class="st97" d="M198.5,511.9c-1.6,0.8-6.4,2.1-7.3,0.5c-0.8-1.6,2.7-5.3,4.2-6.1s3.5-0.3,4.4,1.3
			C200.7,509.1,200.1,511,198.5,511.9z"/>
		
			<linearGradient id="SVGID_63_" gradientUnits="userSpaceOnUse" x1="974.2305" y1="6202.3892" x2="997.4519" y2="6202.3892" gradientTransform="matrix(0.4744 0.8803 -0.8803 0.4744 5203.0859 -3309.4929)">
			<stop  offset="0" style="stop-color:#7D62B8"/>
			<stop  offset="0.1336" style="stop-color:#9039B1"/>
			<stop  offset="0.2525" style="stop-color:#9F19AB"/>
			<stop  offset="0.2865" style="stop-color:#89169C"/>
			<stop  offset="0.3607" style="stop-color:#5E1080"/>
			<stop  offset="0.4328" style="stop-color:#3C0B6A"/>
			<stop  offset="0.501" style="stop-color:#24085A"/>
			<stop  offset="0.5638" style="stop-color:#150650"/>
			<stop  offset="0.6162" style="stop-color:#10054D"/>
			<stop  offset="0.6704" style="stop-color:#150754"/>
			<stop  offset="0.7472" style="stop-color:#230E66"/>
			<stop  offset="0.8375" style="stop-color:#391985"/>
			<stop  offset="0.9293" style="stop-color:#5526AB"/>
			<stop  offset="0.9638" style="stop-color:#4D1BA4"/>
			<stop  offset="1" style="stop-color:#4916A1"/>
		</linearGradient>
		<path class="st98" d="M226.2,506c8.3-4.3-2.8-25.7-11.8-20.4c-9,5.2-19,18.8-19,18.8s0,0,0,0c-1.2,1.4-1.4,3.2-0.2,5.5
			c1.3,2.3,2.3,3,4.7,2.9c0,0,0,0,0,0C199.9,512.7,217.9,510.3,226.2,506z"/>
		
			<linearGradient id="SVGID_64_" gradientUnits="userSpaceOnUse" x1="973.309" y1="6160.1665" x2="997.6127" y2="6160.1665" gradientTransform="matrix(0.4744 0.8803 -0.8803 0.4744 5203.0859 -3309.4929)">
			<stop  offset="0" style="stop-color:#7D62B8"/>
			<stop  offset="0.1336" style="stop-color:#9039B1"/>
			<stop  offset="0.2525" style="stop-color:#9F19AB"/>
			<stop  offset="0.2865" style="stop-color:#89169C"/>
			<stop  offset="0.3607" style="stop-color:#5E1080"/>
			<stop  offset="0.4328" style="stop-color:#3C0B6A"/>
			<stop  offset="0.501" style="stop-color:#24085A"/>
			<stop  offset="0.5638" style="stop-color:#150650"/>
			<stop  offset="0.6162" style="stop-color:#10054D"/>
			<stop  offset="0.6704" style="stop-color:#150754"/>
			<stop  offset="0.7472" style="stop-color:#230E66"/>
			<stop  offset="0.8375" style="stop-color:#391985"/>
			<stop  offset="0.9293" style="stop-color:#5526AB"/>
			<stop  offset="0.9638" style="stop-color:#4D1BA4"/>
			<stop  offset="1" style="stop-color:#4916A1"/>
		</linearGradient>
		<path class="st99" d="M287.7,472.1l-11.3-21l-62.2,34.4l0,0c0,0-0.1,0-0.1,0c-3.4,1.8-3.6,8-0.5,13.8c3.1,5.8,8.4,9,11.8,7.2
			c0,0,0.1,0,0.1,0l0,0L287.7,472.1z"/>
		
			<linearGradient id="SVGID_65_" gradientUnits="userSpaceOnUse" x1="2534.8401" y1="5483.6558" x2="2578.3352" y2="5486.6147" gradientTransform="matrix(0 1 -1 0 5767.2104 -2096.5596)">
			<stop  offset="0" style="stop-color:#D6DAE6"/>
			<stop  offset="1.474476e-02" style="stop-color:#D4D8E6"/>
			<stop  offset="0.2778" style="stop-color:#B4B8E3"/>
			<stop  offset="0.3952" style="stop-color:#9A9FC8"/>
			<stop  offset="0.5296" style="stop-color:#838AB0"/>
			<stop  offset="0.6539" style="stop-color:#757DA1"/>
			<stop  offset="0.7576" style="stop-color:#70789C"/>
			<stop  offset="0.8533" style="stop-color:#777EA2"/>
			<stop  offset="0.9888" style="stop-color:#898EB3"/>
			<stop  offset="1" style="stop-color:#8B90B5"/>
		</linearGradient>
		<path class="st100" d="M287.6,472.1c-3.4,1.8-8.6-1.4-11.8-7.2c-3.1-5.8-2.9-12,0.5-13.8c3.4-1.8,8.6,1.4,11.8,7.2
			C291.2,464.1,291,470.3,287.6,472.1z"/>
		
			<linearGradient id="SVGID_66_" gradientUnits="userSpaceOnUse" x1="973.4158" y1="6074.1772" x2="996.8974" y2="6074.1772" gradientTransform="matrix(0.4744 0.8803 -0.8803 0.4744 5203.0859 -3309.4929)">
			<stop  offset="1.010100e-02" style="stop-color:#C1A1D5"/>
			<stop  offset="4.878611e-02" style="stop-color:#C8ABDA"/>
			<stop  offset="0.1149" style="stop-color:#DAC6E6"/>
			<stop  offset="0.1998" style="stop-color:#F7F2F9"/>
			<stop  offset="0.2222" style="stop-color:#FFFFFF"/>
			<stop  offset="0.2513" style="stop-color:#F9F5FB"/>
			<stop  offset="0.3001" style="stop-color:#E9DBF2"/>
			<stop  offset="0.3586" style="stop-color:#D1B4E3"/>
			<stop  offset="0.4264" style="stop-color:#B395D6"/>
			<stop  offset="0.4949" style="stop-color:#9C7DCB"/>
			<stop  offset="0.5583" style="stop-color:#8E6EC5"/>
			<stop  offset="0.6111" style="stop-color:#8969C3"/>
			<stop  offset="0.755" style="stop-color:#9471C6"/>
			<stop  offset="1" style="stop-color:#B086CC"/>
		</linearGradient>
		<path class="st101" d="M375.8,422.3l-9.2-17l-90.4,46l0,0c0,0-0.1,0-0.1,0c-3.4,1.8-3.6,8-0.5,13.8c3.1,5.8,8.4,9,11.8,7.2
			c0,0,0.1,0,0.1,0l0,0L375.8,422.3z"/>
		
			<linearGradient id="SVGID_67_" gradientUnits="userSpaceOnUse" x1="2491.5146" y1="5394.7837" x2="2526.7454" y2="5397.1807" gradientTransform="matrix(0 1 -1 0 5767.2104 -2096.5596)">
			<stop  offset="1.010100e-02" style="stop-color:#C1A1D5"/>
			<stop  offset="4.878611e-02" style="stop-color:#C8ABDA"/>
			<stop  offset="0.1149" style="stop-color:#DAC6E6"/>
			<stop  offset="0.1998" style="stop-color:#F7F2F9"/>
			<stop  offset="0.2222" style="stop-color:#FFFFFF"/>
			<stop  offset="0.2513" style="stop-color:#F9F5FB"/>
			<stop  offset="0.3001" style="stop-color:#E9DBF2"/>
			<stop  offset="0.3586" style="stop-color:#D1B4E3"/>
			<stop  offset="0.4264" style="stop-color:#B395D6"/>
			<stop  offset="0.4949" style="stop-color:#9C7DCB"/>
			<stop  offset="0.5583" style="stop-color:#8E6EC5"/>
			<stop  offset="0.6111" style="stop-color:#8969C3"/>
			<stop  offset="0.755" style="stop-color:#9471C6"/>
			<stop  offset="1" style="stop-color:#B086CC"/>
		</linearGradient>
		<path class="st102" d="M375.7,422.3c-2.7,1.5-7-1.1-9.5-5.8c-2.5-4.7-2.4-9.7,0.4-11.2c2.7-1.5,7,1.1,9.5,5.8
			C378.6,415.9,378.5,420.9,375.7,422.3z"/>
		<radialGradient id="SVGID_68_" cx="365.7701" cy="412.1334" r="7.405" gradientUnits="userSpaceOnUse">
			<stop  offset="0" style="stop-color:#B4299A"/>
			<stop  offset="0.1186" style="stop-color:#8A2076"/>
			<stop  offset="0.259" style="stop-color:#601652"/>
			<stop  offset="0.4024" style="stop-color:#3E0E35"/>
			<stop  offset="0.5471" style="stop-color:#23081E"/>
			<stop  offset="0.6936" style="stop-color:#0F030D"/>
			<stop  offset="0.8431" style="stop-color:#040103"/>
			<stop  offset="1" style="stop-color:#000000"/>
		</radialGradient>
		<path class="st103" d="M366.6,416.4c-2.5-4.7-2.4-9.7,0.4-11.2c0.1,0,0.1-0.1,0.2-0.1c-0.3,0.1-0.6,0.2-0.9,0.3
			c-2.7,1.5-2.9,6.5-0.4,11.2c2.5,4.6,6.6,7.2,9.3,5.9C372.5,423.2,368.9,420.6,366.6,416.4z"/>
		
			<radialGradient id="SVGID_69_" cx="206.4364" cy="5643.2275" r="41.9492" gradientTransform="matrix(0.7367 0.6762 -0.2586 0.2817 1503.9764 -1220.9843)" gradientUnits="userSpaceOnUse">
			<stop  offset="0" style="stop-color:#000000"/>
			<stop  offset="1" style="stop-color:#FFFFFF"/>
		</radialGradient>
		<path class="st104" d="M291.5,566.2l-78.6-46.9c0,0-0.7-0.4-0.9-0.5c-7.9-4.3-18.1-7.7-18.1-7.7s0,0,0,0c-1.3-0.4-1.9-0.1-1.6,1.4
			c0.3,1.5,0.9,2.4,2.7,4c0,0,0,0,0,0c0,0,11.6,9.6,19.1,14.6c0.4,0.4,0.8,0.7,1.3,0.9c0,0,0,0,0.1,0l0,0l78.9,47.4L291.5,566.2z"/>
		
			<radialGradient id="SVGID_70_" cx="206.8233" cy="5650.959" r="18.6998" gradientTransform="matrix(0.7367 0.6762 -0.2586 0.2817 1503.9764 -1220.9843)" gradientUnits="userSpaceOnUse">
			<stop  offset="0" style="stop-color:#000000"/>
			<stop  offset="1" style="stop-color:#FFFFFF"/>
		</radialGradient>
		<path class="st105" d="M237.3,536.5l-35.3-21c0,0-0.3-0.2-0.4-0.2c-3.5-1.9-8.1-3.5-8.1-3.5s0,0,0,0c-0.6-0.2-0.3,1.7,0.5,2.4
			c0,0,0,0,0,0s5.2,4.3,8.6,6.6c0.2,0.2,0.4,0.3,0.6,0.4c0,0,0,0,0,0v0l35.4,21.2L237.3,536.5z"/>
		
			<radialGradient id="SVGID_71_" cx="2064.2246" cy="-7077.8706" r="25.5364" gradientTransform="matrix(1.443 -0.7578 9.560000e-02 0.1821 -1978.7449 3286.24)" gradientUnits="userSpaceOnUse">
			<stop  offset="0" style="stop-color:#FFFFFF"/>
			<stop  offset="0.1313" style="stop-color:#FF63CE"/>
			<stop  offset="1" style="stop-color:#000000"/>
		</radialGradient>
		<path class="st106" d="M361.4,413c1.3,2.5-18.7,15.6-38.3,25.9c-19.6,10.3-36.6,16.7-37.9,14.2c-1.3-2.5,13.6-12.8,33.2-23.1
			C338,419.7,360.1,410.5,361.4,413z"/>
		<path class="st107" d="M270.8,465.1l-52.5,28.6c-1.2,0.7-2.7,0.2-3.4-1l-1-1.8c-0.7-1.2-0.2-2.7,1-3.4l52.5-28.6
			c1.2-0.7,2.7-0.2,3.4,1l1,1.8C272.4,462.9,272,464.4,270.8,465.1z"/>
		<linearGradient id="SVGID_72_" gradientUnits="userSpaceOnUse" x1="233.3748" y1="474.2922" x2="244.9489" y2="494.6346">
			<stop  offset="0" style="stop-color:#7D62B8"/>
			<stop  offset="0.1336" style="stop-color:#9039B1"/>
			<stop  offset="0.2525" style="stop-color:#9F19AB"/>
			<stop  offset="0.2865" style="stop-color:#89169C"/>
			<stop  offset="0.3607" style="stop-color:#5E1080"/>
			<stop  offset="0.4328" style="stop-color:#3C0B6A"/>
			<stop  offset="0.501" style="stop-color:#24085A"/>
			<stop  offset="0.5638" style="stop-color:#150650"/>
			<stop  offset="0.6162" style="stop-color:#10054D"/>
			<stop  offset="0.6704" style="stop-color:#150754"/>
			<stop  offset="0.7472" style="stop-color:#230E66"/>
			<stop  offset="0.8375" style="stop-color:#391985"/>
			<stop  offset="0.9293" style="stop-color:#5526AB"/>
			<stop  offset="0.9638" style="stop-color:#4D1BA4"/>
			<stop  offset="1" style="stop-color:#4916A1"/>
		</linearGradient>
		<path class="st108" d="M252.7,473.8l-30.1,16.4c-0.9,0.5-2,0.2-2.5-0.7l-0.7-1.3c-0.5-0.9-0.2-2,0.7-2.5l30.1-16.4
			c0.9-0.5,2-0.2,2.5,0.7l0.7,1.3C253.9,472.2,253.6,473.3,252.7,473.8z"/>
		<path class="st109" d="M253.1,470.6c-0.2-0.4-0.6-0.7-1-0.9c0.1,0.1,0.3,0.3,0.4,0.4c0.7,1.3,0.2,2.8-1,3.5l-28.8,15.7
			c-0.8,0.5-1.8,0.4-2.5-0.1c0.8,0.9,2.1,1.2,3.1,0.6l28.8-15.7C253.3,473.4,253.8,471.9,253.1,470.6z"/>
		<radialGradient id="SVGID_73_" cx="240.6865" cy="518.3551" r="60.4027" gradientUnits="userSpaceOnUse">
			<stop  offset="0" style="stop-color:#B4299A"/>
			<stop  offset="0.1186" style="stop-color:#8A2076"/>
			<stop  offset="0.259" style="stop-color:#601652"/>
			<stop  offset="0.4024" style="stop-color:#3E0E35"/>
			<stop  offset="0.5471" style="stop-color:#23081E"/>
			<stop  offset="0.6936" style="stop-color:#0F030D"/>
			<stop  offset="0.8431" style="stop-color:#040103"/>
			<stop  offset="1" style="stop-color:#000000"/>
		</radialGradient>
		<path class="st110" d="M360.1,409.3l-145.2,77c0,0-0.7,0.5-1,0.7c-8.7,5.7-18.6,17.2-18.6,17.2s0,0,0,0c-1.2,1.4-1.4,3.2-0.2,5.5
			c1.3,2.3,2.3,3,4.7,2.9c0,0,0,0,0,0c0,0,15.1-2,24-5.7c0.6-0.1,1.1-0.2,1.6-0.5c0,0,0.1,0,0.1,0l0,0l143.6-80.6L360.1,409.3z"/>
		
			<radialGradient id="SVGID_74_" cx="-9788.8418" cy="5648.0386" r="15.2883" gradientTransform="matrix(0.1514 0.1917 -0.7847 0.6198 6123.7021 -1128.6729)" gradientUnits="userSpaceOnUse">
			<stop  offset="0" style="stop-color:#742A97"/>
			<stop  offset="4.128253e-02" style="stop-color:#6A268A"/>
			<stop  offset="0.1941" style="stop-color:#4A1B60"/>
			<stop  offset="0.35" style="stop-color:#2F113D"/>
			<stop  offset="0.5074" style="stop-color:#1B0A22"/>
			<stop  offset="0.6667" style="stop-color:#0C040F"/>
			<stop  offset="0.8293" style="stop-color:#030104"/>
			<stop  offset="1" style="stop-color:#000000"/>
		</radialGradient>
		<path class="st111" d="M220.1,490.9c7.3-5.8,4-10.6-4.1-4.1s-19,17.3-19,17.3s0,0,0,0c-1.3,1.2-1.9,2.1-1.5,2.6
			c0.4,0.5,1,0.3,2.9-0.8c0,0,0,0,0,0C198.4,506,212.8,496.6,220.1,490.9z"/>
		
			<radialGradient id="SVGID_75_" cx="-12502.7998" cy="7250.686" r="15.2894" gradientTransform="matrix(4.200000e-02 0.1398 -0.8211 0.2468 6692.5845 465.0841)" gradientUnits="userSpaceOnUse">
			<stop  offset="0" style="stop-color:#742A97"/>
			<stop  offset="4.128253e-02" style="stop-color:#6A268A"/>
			<stop  offset="0.1941" style="stop-color:#4A1B60"/>
			<stop  offset="0.35" style="stop-color:#2F113D"/>
			<stop  offset="0.5074" style="stop-color:#1B0A22"/>
			<stop  offset="0.6667" style="stop-color:#0C040F"/>
			<stop  offset="0.8293" style="stop-color:#030104"/>
			<stop  offset="1" style="stop-color:#000000"/>
		</radialGradient>
		<path class="st112" d="M223.5,505.6c7.7-2.3,7-5.7-1.6-3.1c-8.6,2.6-20.7,7.4-20.7,7.4s0,0,0,0c-1.4,0.5-2.2,1-2.1,1.4
			c0.1,0.4,0.7,0.4,2.5,0c0,0,0,0,0,0C201.6,511.2,215.8,507.9,223.5,505.6z"/>
	</g>
	<g>
		<g>
			<linearGradient id="SVGID_76_" gradientUnits="userSpaceOnUse" x1="319.3369" y1="170.2103" x2="379.4958" y2="100.0249">
				<stop  offset="0" style="stop-color:#B086CC"/>
				<stop  offset="3.694463e-02" style="stop-color:#A37CBD"/>
				<stop  offset="0.168" style="stop-color:#785B8B"/>
				<stop  offset="0.3022" style="stop-color:#533F60"/>
				<stop  offset="0.4373" style="stop-color:#35283E"/>
				<stop  offset="0.5736" style="stop-color:#1E1723"/>
				<stop  offset="0.7115" style="stop-color:#0D0A0F"/>
				<stop  offset="0.8522" style="stop-color:#030204"/>
				<stop  offset="1" style="stop-color:#000000"/>
			</linearGradient>
			<polygon class="st113" points="462.6,138.3 295,41.2 234,77.4 234,134.5 401.5,231.4 401.5,231.4 401.5,231.4 401.6,231.4 
				401.6,231.4 462.6,195.4 			"/>
			<g class="st25">
				<linearGradient id="SVGID_77_" gradientUnits="userSpaceOnUse" x1="399.4034" y1="203.1031" x2="463.7434" y2="171.9279">
					<stop  offset="0" style="stop-color:#9F79C8"/>
					<stop  offset="0.1367" style="stop-color:#A580CB"/>
					<stop  offset="0.3288" style="stop-color:#B492D3"/>
					<stop  offset="0.5529" style="stop-color:#CDB0E1"/>
					<stop  offset="0.5808" style="stop-color:#D1B4E3"/>
					<stop  offset="0.7644" style="stop-color:#DBC4E9"/>
					<stop  offset="1" style="stop-color:#EBDEF3"/>
				</linearGradient>
				<polygon class="st114" points="401.5,174.6 401.5,231.4 418,221.9 418,164.8 				"/>
				<linearGradient id="SVGID_78_" gradientUnits="userSpaceOnUse" x1="230.9902" y1="212.7676" x2="395.4168" y2="102.2049">
					<stop  offset="0" style="stop-color:#9F79C8"/>
					<stop  offset="0.1367" style="stop-color:#A580CB"/>
					<stop  offset="0.3288" style="stop-color:#B492D3"/>
					<stop  offset="0.5529" style="stop-color:#CDB0E1"/>
					<stop  offset="0.5808" style="stop-color:#D1B4E3"/>
					<stop  offset="0.7644" style="stop-color:#DBC4E9"/>
					<stop  offset="1" style="stop-color:#EBDEF3"/>
				</linearGradient>
				<polygon class="st115" points="401.6,174.6 401.6,231.4 234,134.5 234,77.4 				"/>
				<linearGradient id="SVGID_79_" gradientUnits="userSpaceOnUse" x1="364.2181" y1="65.2719" x2="323.8838" y2="124.1813">
					<stop  offset="0" style="stop-color:#9F79C8"/>
					<stop  offset="0.1367" style="stop-color:#A580CB"/>
					<stop  offset="0.3288" style="stop-color:#B492D3"/>
					<stop  offset="0.5529" style="stop-color:#CDB0E1"/>
					<stop  offset="0.5808" style="stop-color:#D1B4E3"/>
					<stop  offset="0.7644" style="stop-color:#DBC4E9"/>
					<stop  offset="1" style="stop-color:#EBDEF3"/>
				</linearGradient>
				<polygon class="st116" points="234,77.4 401.6,174.6 418,164.8 250.4,67.7 				"/>
			</g>
		</g>
		<g>
			<polygon class="st55" points="264.8,142.9 245.5,131.8 245.5,94 264.8,105.1 			"/>
			<polygon class="st56" points="290.1,157.5 270.8,146.4 270.8,108.6 290.1,119.7 			"/>
			<polygon class="st57" points="315.4,172.1 296.1,161 296.1,123.2 315.4,134.3 			"/>
			<polygon class="st58" points="340.7,186.7 321.4,175.6 321.4,137.8 340.7,148.9 			"/>
			<polygon class="st59" points="366,201.3 346.7,190.2 346.7,152.4 366,163.5 			"/>
			<polygon class="st60" points="391.3,215.9 372,204.8 372,167 391.3,178.1 			"/>
		</g>
	</g>
	<radialGradient id="SVGID_80_" cx="117.8142" cy="450.2021" r="94.7478" gradientUnits="userSpaceOnUse">
		<stop  offset="0" style="stop-color:#FA45C1"/>
		<stop  offset="0.2052" style="stop-color:#CB389D"/>
		<stop  offset="0.6676" style="stop-color:#571843"/>
		<stop  offset="1" style="stop-color:#000000"/>
	</radialGradient>
	<path class="st117" d="M77.2,583.6l-53.5-30.9c-12.1-7-19-17.7-19-29.4c0-11,6-20.8,16.5-26.8l174.3-100.1l1,1.7L22.2,498.2
		c-9.8,5.7-15.5,14.8-15.5,25.1c0,11,6.5,21.1,18,27.7l53.5,30.9L77.2,583.6z"/>
</g>
</svg>
